ISO-10303-21;
HEADER;
FILE_DESCRIPTION (( 'STEP AP214' ),
    '1' );
FILE_NAME ('dinr135-010.step',
    '2021-06-10T13:22:52',
    ( '' ),
    ( '' ),
    'SwSTEP 2.0',
    'SolidWorks 2018',
    '' );
FILE_SCHEMA (( 'AUTOMOTIVE_DESIGN' ));
ENDSEC;

DATA;
#1 = CIRCLE ( 'NONE', #444, 3.099999999999997424 ) ;
#2 = EDGE_CURVE ( 'NONE', #184, #961, #294, .T. ) ;
#3 = CARTESIAN_POINT ( 'NONE',  ( 100.0000000000000000, 6.499999999999999112, -14.29999999999999893 ) ) ;
#4 = CARTESIAN_POINT ( 'NONE',  ( 100.0000000000000000, 7.499999999999996447, -14.30000000000000071 ) ) ;
#5 = ORIENTED_EDGE ( 'NONE', *, *, #691, .T. ) ;
#6 = SURFACE_SIDE_STYLE ('',( #442 ) ) ;
#7 = CARTESIAN_POINT ( 'NONE',  ( 41.90000000000000568, -3.903127820947815962E-15, 3.099999999999996092 ) ) ;
#8 = ORIENTED_EDGE ( 'NONE', *, *, #346, .F. ) ;
#9 = AXIS2_PLACEMENT_3D ( 'NONE', #565, #380, #983 ) ;
#10 = ORIENTED_EDGE ( 'NONE', *, *, #65, .T. ) ;
#11 = CARTESIAN_POINT ( 'NONE',  ( 0.000000000000000000, 5.699999999999999289, -13.49999999999999822 ) ) ;
#12 = FACE_OUTER_BOUND ( 'NONE', #590, .T. ) ;
#13 = FACE_OUTER_BOUND ( 'NONE', #295, .T. ) ;
#14 = EDGE_CURVE ( 'NONE', #1275, #61, #1271, .T. ) ;
#15 = LINE ( 'NONE', #1288, #723 ) ;
#16 = EDGE_CURVE ( 'NONE', #899, #33, #753, .T. ) ;
#17 = DIRECTION ( 'NONE',  ( 0.000000000000000000, 1.808642493913339749E-16, -1.000000000000000000 ) ) ;
#18 = CARTESIAN_POINT ( 'NONE',  ( 16.90000000000000213, 1.000000000000002887, -3.099999999999999201 ) ) ;
#19 = EDGE_LOOP ( 'NONE', ( #746, #1075, #495, #1116 ) ) ;
#20 = ORIENTED_EDGE ( 'NONE', *, *, #656, .F. ) ;
#21 = CARTESIAN_POINT ( 'NONE',  ( 100.0000000000000000, 5.699999999999999289, -14.29999999999999893 ) ) ;
#22 = DIRECTION ( 'NONE',  ( 0.000000000000000000, 1.000000000000000000, 1.853337046983769074E-16 ) ) ;
#23 = DIRECTION ( 'NONE',  ( -1.000000000000000000, -0.000000000000000000, -0.000000000000000000 ) ) ;
#24 = ORIENTED_EDGE ( 'NONE', *, *, #878, .T. ) ;
#25 = VERTEX_POINT ( 'NONE', #582 ) ;
#26 = ORIENTED_EDGE ( 'NONE', *, *, #604, .T. ) ;
#27 = CARTESIAN_POINT ( 'NONE',  ( 100.0000000000000000, 1.800000000000004263, -12.49999999999999645 ) ) ;
#28 = ORIENTED_EDGE ( 'NONE', *, *, #113, .T. ) ;
#29 = DIRECTION ( 'NONE',  ( -0.000000000000000000, -1.000000000000000000, -0.000000000000000000 ) ) ;
#30 = CYLINDRICAL_SURFACE ( 'NONE', #181, 1.799999999999999600 ) ;
#31 = VECTOR ( 'NONE', #955, 1000.000000000000000 ) ;
#32 = DIRECTION ( 'NONE',  ( 0.000000000000000000, 1.000000000000000000, 1.853337046983769074E-16 ) ) ;
#33 = VERTEX_POINT ( 'NONE', #78 ) ;
#34 = LINE ( 'NONE', #122, #268 ) ;
#35 = CARTESIAN_POINT ( 'NONE',  ( 100.0000000000000000, 1.799999999999995604, -11.70000000000000107 ) ) ;
#36 = CARTESIAN_POINT ( 'NONE',  ( 66.90000000000001990, 1.000000000000002220, -1.271995986286973412E-15 ) ) ;
#37 = DIRECTION ( 'NONE',  ( -0.000000000000000000, 1.000000000000000000, 1.853337046983769074E-16 ) ) ;
#38 = DIRECTION ( 'NONE',  ( -0.000000000000000000, 1.000000000000000000, -0.000000000000000000 ) ) ;
#39 = AXIS2_PLACEMENT_3D ( 'NONE', #422, #1138, #137 ) ;
#40 = PRODUCT ( 'dinr135-010', 'dinr135-010', '', ( #1217 ) ) ;
#41 = DIRECTION ( 'NONE',  ( -0.000000000000000000, -1.000000000000000000, 8.896017825522105362E-16 ) ) ;
#42 = ORIENTED_EDGE ( 'NONE', *, *, #1130, .F. ) ;
#43 = EDGE_CURVE ( 'NONE', #1001, #117, #355, .T. ) ;
#44 = CARTESIAN_POINT ( 'NONE',  ( 100.0000000000000000, 6.499999999999998224, 17.50000000000000000 ) ) ;
#45 = EDGE_CURVE ( 'NONE', #1072, #698, #1077, .T. ) ;
#46 = CARTESIAN_POINT ( 'NONE',  ( 100.0000000000000000, 1.000000000000004441, -11.69999999999999574 ) ) ;
#47 = EDGE_LOOP ( 'NONE', ( #434, #558, #1268, #911 ) ) ;
#48 = VECTOR ( 'NONE', #432, 1000.000000000000000 ) ;
#49 = DIRECTION ( 'NONE',  ( -0.000000000000000000, 1.000000000000000000, 1.853337046983769074E-16 ) ) ;
#50 = VECTOR ( 'NONE', #1120, 1000.000000000000000 ) ;
#51 = DIRECTION ( 'NONE',  ( 0.000000000000000000, 1.808642493913339749E-16, -1.000000000000000000 ) ) ;
#52 = ORIENTED_EDGE ( 'NONE', *, *, #1214, .T. ) ;
#53 = AXIS2_PLACEMENT_3D ( 'NONE', #436, #22, #933 ) ;
#54 = VERTEX_POINT ( 'NONE', #803 ) ;
#55 = DIRECTION ( 'NONE',  ( 0.000000000000000000, 0.000000000000000000, 1.000000000000000000 ) ) ;
#56 = EDGE_LOOP ( 'NONE', ( #72, #52, #560, #754, #1053, #395, #1169, #10, #1165, #1185, #1257, #531, #562, #851, #1033, #246, #718, #1100, #261, #629 ) ) ;
#57 = VERTEX_POINT ( 'NONE', #1204 ) ;
#58 = ADVANCED_FACE ( 'NONE', ( #277 ), #83, .F. ) ;
#59 = FACE_OUTER_BOUND ( 'NONE', #907, .T. ) ;
#60 = LINE ( 'NONE', #27, #281 ) ;
#61 = VERTEX_POINT ( 'NONE', #599 ) ;
#62 = CARTESIAN_POINT ( 'NONE',  ( 8.099999999999997868, 1.000000000000001554, 3.099999999999997424 ) ) ;
#63 = FACE_OUTER_BOUND ( 'NONE', #47, .T. ) ;
#64 = LINE ( 'NONE', #44, #535 ) ;
#65 = EDGE_CURVE ( 'NONE', #61, #467, #1040, .T. ) ;
#66 = DIRECTION ( 'NONE',  ( -0.000000000000000000, 1.000000000000000000, 1.853337046983769074E-16 ) ) ;
#67 = VERTEX_POINT ( 'NONE', #700 ) ;
#68 = ADVANCED_FACE ( 'NONE', ( #569 ), #293, .T. ) ;
#69 = EDGE_CURVE ( 'NONE', #33, #1206, #15, .T. ) ;
#70 = DIRECTION ( 'NONE',  ( -0.000000000000000000, 1.000000000000000000, 1.853337046983769074E-16 ) ) ;
#71 = ORIENTED_EDGE ( 'NONE', *, *, #402, .F. ) ;
#72 = ORIENTED_EDGE ( 'NONE', *, *, #1063, .T. ) ;
#73 = ADVANCED_FACE ( 'NONE', ( #501 ), #788, .F. ) ;
#74 = DIRECTION ( 'NONE',  ( 0.000000000000000000, 1.000000000000000000, 1.853337046983769074E-16 ) ) ;
#75 = VECTOR ( 'NONE', #511, 1000.000000000000000 ) ;
#76 = VECTOR ( 'NONE', #1149, 1000.000000000000000 ) ;
#77 = CARTESIAN_POINT ( 'NONE',  ( 91.90000000000000568, -2.602085213965210642E-15, -3.099999999999999201 ) ) ;
#78 = CARTESIAN_POINT ( 'NONE',  ( 0.000000000000000000, 1.000000000000004441, -11.69999999999999574 ) ) ;
#79 = AXIS2_PLACEMENT_3D ( 'NONE', #637, #32, #644 ) ;
#80 = ORIENTED_EDGE ( 'NONE', *, *, #923, .T. ) ;
#81 = EDGE_CURVE ( 'NONE', #957, #185, #458, .T. ) ;
#82 = DIRECTION ( 'NONE',  ( 0.000000000000000000, 1.000000000000000000, 1.853337046983769074E-16 ) ) ;
#83 = PLANE ( 'NONE',  #1306 ) ;
#84 = EDGE_CURVE ( 'NONE', #579, #1275, #192, .T. ) ;
#85 = AXIS2_PLACEMENT_3D ( 'NONE', #345, #23, #739 ) ;
#86 = ORIENTED_EDGE ( 'NONE', *, *, #223, .F. ) ;
#87 = ADVANCED_FACE ( 'NONE', ( #63 ), #1291, .F. ) ;
#88 = CARTESIAN_POINT ( 'NONE',  ( 100.0000000000000000, 1.045852541848039530E-16, 11.69999999999999929 ) ) ;
#89 = VERTEX_POINT ( 'NONE', #91 ) ;
#90 = DIRECTION ( 'NONE',  ( 0.000000000000000000, 1.000000000000000000, 1.853337046983769074E-16 ) ) ;
#91 = CARTESIAN_POINT ( 'NONE',  ( 33.09999999999999432, 1.000000000000002887, -3.099999999999997424 ) ) ;
#92 = ORIENTED_EDGE ( 'NONE', *, *, #156, .T. ) ;
#93 = CIRCLE ( 'NONE', #898, 1.799999999999994271 ) ;
#94 = VERTEX_POINT ( 'NONE', #1098 ) ;
#95 = VECTOR ( 'NONE', #1150, 1000.000000000000000 ) ;
#96 = ORIENTED_EDGE ( 'NONE', *, *, #1262, .F. ) ;
#97 = CIRCLE ( 'NONE', #1127, 3.099999999999997424 ) ;
#98 = ORIENTED_EDGE ( 'NONE', *, *, #491, .F. ) ;
#99 = DIRECTION ( 'NONE',  ( 0.000000000000000000, 0.000000000000000000, 1.000000000000000000 ) ) ;
#100 = DIRECTION ( 'NONE',  ( -0.000000000000000000, -1.853337046983769074E-16, 1.000000000000000000 ) ) ;
#101 = ORIENTED_EDGE ( 'NONE', *, *, #839, .T. ) ;
#102 = DIRECTION ( 'NONE',  ( -1.000000000000000000, 0.000000000000000000, -0.000000000000000000 ) ) ;
#103 = DIRECTION ( 'NONE',  ( -0.000000000000000000, 1.000000000000000000, 1.853337046983769074E-16 ) ) ;
#104 = ORIENTED_EDGE ( 'NONE', *, *, #908, .T. ) ;
#105 = VERTEX_POINT ( 'NONE', #1111 ) ;
#106 = AXIS2_PLACEMENT_3D ( 'NONE', #1226, #603, #716 ) ;
#107 = DIRECTION ( 'NONE',  ( -0.000000000000000000, -1.897353801849631971E-15, 1.000000000000000000 ) ) ;
#108 = DIRECTION ( 'NONE',  ( 0.000000000000000000, 1.000000000000000000, 1.853337046983769074E-16 ) ) ;
#109 = DIRECTION ( 'NONE',  ( -1.000000000000000000, -0.000000000000000000, -0.000000000000000000 ) ) ;
#110 = EDGE_CURVE ( 'NONE', #1205, #256, #1212, .T. ) ;
#111 = LINE ( 'NONE', #705, #720 ) ;
#112 = CIRCLE ( 'NONE', #504, 3.099999999999997424 ) ;
#113 = EDGE_CURVE ( 'NONE', #198, #698, #1147, .T. ) ;
#114 = DIRECTION ( 'NONE',  ( 1.971276677246370040E-16, -1.853337046983769074E-16, 1.000000000000000000 ) ) ;
#115 = FACE_OUTER_BOUND ( 'NONE', #623, .T. ) ;
#116 = EDGE_LOOP ( 'NONE', ( #938, #415, #297, #341 ) ) ;
#117 = VERTEX_POINT ( 'NONE', #1219 ) ;
#118 = APPLICATION_CONTEXT ( 'automotive_design' ) ;
#119 = DIRECTION ( 'NONE',  ( 0.000000000000000000, 0.000000000000000000, 1.000000000000000000 ) ) ;
#120 = CARTESIAN_POINT ( 'NONE',  ( 100.0000000000000000, 1.799999999999999822, 12.49999999999999645 ) ) ;
#121 = CARTESIAN_POINT ( 'NONE',  ( 66.90000000000001990, 1.000000000000002887, -3.099999999999999201 ) ) ;
#122 = CARTESIAN_POINT ( 'NONE',  ( 0.000000000000000000, 1.799999999999999822, 12.49999999999999645 ) ) ;
#123 = ORIENTED_EDGE ( 'NONE', *, *, #16, .T. ) ;
#124 = ORIENTED_EDGE ( 'NONE', *, *, #702, .T. ) ;
#125 = DIRECTION ( 'NONE',  ( -1.000000000000000000, -0.000000000000000000, 0.000000000000000000 ) ) ;
#126 = CARTESIAN_POINT ( 'NONE',  ( 0.000000000000000000, 1.799999999999999822, 13.49999999999999822 ) ) ;
#127 = VECTOR ( 'NONE', #1243, 1000.000000000000000 ) ;
#128 = LINE ( 'NONE', #588, #840 ) ;
#129 = DIRECTION ( 'NONE',  ( 0.000000000000000000, -1.853337046983768088E-16, 1.000000000000000000 ) ) ;
#130 = FACE_OUTER_BOUND ( 'NONE', #433, .T. ) ;
#131 = DIRECTION ( 'NONE',  ( 0.000000000000000000, 0.000000000000000000, 1.000000000000000000 ) ) ;
#132 = FACE_OUTER_BOUND ( 'NONE', #968, .T. ) ;
#133 = DIRECTION ( 'NONE',  ( -1.000000000000000000, -0.000000000000000000, -0.000000000000000000 ) ) ;
#134 = CARTESIAN_POINT ( 'NONE',  ( 58.10000000000000142, -2.602085213965210642E-15, -3.099999999999997424 ) ) ;
#135 = ORIENTED_EDGE ( 'NONE', *, *, #43, .T. ) ;
#136 = CARTESIAN_POINT ( 'NONE',  ( 100.0000000000000000, 1.951563910473907981E-15, -11.70000000000000107 ) ) ;
#137 = DIRECTION ( 'NONE',  ( 1.000000000000000000, 0.000000000000000000, 0.000000000000000000 ) ) ;
#138 = CARTESIAN_POINT ( 'NONE',  ( 16.90000000000000213, -2.602085213965210642E-15, -3.099999999999999201 ) ) ;
#139 = AXIS2_PLACEMENT_3D ( 'NONE', #952, #860, #658 ) ;
#140 = EDGE_CURVE ( 'NONE', #61, #794, #370, .T. ) ;
#141 = ORIENTED_EDGE ( 'NONE', *, *, #1018, .F. ) ;
#142 = EDGE_LOOP ( 'NONE', ( #1140, #1260, #1164, #92 ) ) ;
#143 = FACE_OUTER_BOUND ( 'NONE', #1263, .T. ) ;
#144 = CARTESIAN_POINT ( 'NONE',  ( 100.0000000000000000, 5.700000000000000178, 14.29999999999999716 ) ) ;
#145 = FACE_OUTER_BOUND ( 'NONE', #864, .T. ) ;
#146 = CIRCLE ( 'NONE', #1101, 1.799999999999999600 ) ;
#147 = DIRECTION ( 'NONE',  ( -1.000000000000000000, -0.000000000000000000, -0.000000000000000000 ) ) ;
#148 = DIRECTION ( 'NONE',  ( 1.000000000000000000, 0.000000000000000000, -1.971276677246370040E-16 ) ) ;
#149 = ORIENTED_EDGE ( 'NONE', *, *, #1108, .F. ) ;
#150 = CARTESIAN_POINT ( 'NONE',  ( 33.09999999999999432, -3.903127820947815962E-15, 3.099999999999997424 ) ) ;
#151 = AXIS2_PLACEMENT_3D ( 'NONE', #543, #836, #940 ) ;
#152 = FILL_AREA_STYLE ('',( #863 ) ) ;
#153 = EDGE_LOOP ( 'NONE', ( #1273, #1097, #1124, #1193, #832, #778, #684, #963, #786, #1151, #670, #199, #392, #876, #42, #296, #526, #587, #701, #777 ) ) ;
#154 = EDGE_CURVE ( 'NONE', #67, #1072, #1107, .T. ) ;
#155 = ORIENTED_EDGE ( 'NONE', *, *, #1282, .T. ) ;
#156 = EDGE_CURVE ( 'NONE', #388, #1305, #426, .T. ) ;
#157 = ORIENTED_EDGE ( 'NONE', *, *, #1159, .T. ) ;
#158 = AXIS2_PLACEMENT_3D ( 'NONE', #454, #1057, #749 ) ;
#159 = CARTESIAN_POINT ( 'NONE',  ( 0.000000000000000000, 6.499999999999997335, -17.50000000000000000 ) ) ;
#160 = CIRCLE ( 'NONE', #522, 1.799999999999999600 ) ;
#161 = LINE ( 'NONE', #191, #651 ) ;
#162 = LINE ( 'NONE', #404, #743 ) ;
#163 = DIRECTION ( 'NONE',  ( 0.000000000000000000, -1.853337046983768088E-16, 1.000000000000000000 ) ) ;
#164 = PRESENTATION_STYLE_ASSIGNMENT (( #193 ) ) ;
#165 = ADVANCED_FACE ( 'NONE', ( #533, #998, #1267, #390, #1280 ), #913, .F. ) ;
#166 = EDGE_CURVE ( 'NONE', #794, #67, #34, .T. ) ;
#167 = ORIENTED_EDGE ( 'NONE', *, *, #906, .T. ) ;
#168 = DIRECTION ( 'NONE',  ( 1.000000000000000000, 0.000000000000000000, -1.971276677246370040E-16 ) ) ;
#169 = DIRECTION ( 'NONE',  ( 0.000000000000000000, 0.000000000000000000, 1.000000000000000000 ) ) ;
#170 = ORIENTED_EDGE ( 'NONE', *, *, #604, .F. ) ;
#171 = DIRECTION ( 'NONE',  ( 0.000000000000000000, -2.098455817713881291E-16, 1.000000000000000000 ) ) ;
#172 = ADVANCED_FACE ( 'NONE', ( #552 ), #1236, .T. ) ;
#173 = ORIENTED_EDGE ( 'NONE', *, *, #84, .F. ) ;
#174 = VECTOR ( 'NONE', #100, 1000.000000000000000 ) ;
#175 = AXIS2_PLACEMENT_3D ( 'NONE', #36, #537, #630 ) ;
#176 = VECTOR ( 'NONE', #103, 1000.000000000000000 ) ;
#177 = EDGE_CURVE ( 'NONE', #94, #1272, #242, .T. ) ;
#178 = DIRECTION ( 'NONE',  ( -1.000000000000000000, -0.000000000000000000, 1.971276677246370779E-16 ) ) ;
#179 = VERTEX_POINT ( 'NONE', #1025 ) ;
#180 = EDGE_CURVE ( 'NONE', #105, #561, #162, .T. ) ;
#181 = AXIS2_PLACEMENT_3D ( 'NONE', #935, #331, #1047 ) ;
#182 = ORIENTED_EDGE ( 'NONE', *, *, #1190, .T. ) ;
#183 = CARTESIAN_POINT ( 'NONE',  ( 8.099999999999997868, -3.252606517456513302E-15, -1.457329690985351379E-15 ) ) ;
#184 = VERTEX_POINT ( 'NONE', #11 ) ;
#185 = VERTEX_POINT ( 'NONE', #218 ) ;
#186 = DIRECTION ( 'NONE',  ( 0.000000000000000000, -1.853337046983768088E-16, 1.000000000000000000 ) ) ;
#187 = EDGE_LOOP ( 'NONE', ( #26, #883, #867, #157 ) ) ;
#188 = CARTESIAN_POINT ( 'NONE',  ( 100.0000000000000000, 7.499999999999997335, -14.30000000000000071 ) ) ;
#189 = FACE_OUTER_BOUND ( 'NONE', #1239, .T. ) ;
#190 = CYLINDRICAL_SURFACE ( 'NONE', #553, 0.8000000000000003775 ) ;
#191 = CARTESIAN_POINT ( 'NONE',  ( 100.0000000000000000, 6.499999999999997335, -17.50000000000000000 ) ) ;
#192 = LINE ( 'NONE', #386, #174 ) ;
#193 = SURFACE_STYLE_USAGE ( .BOTH. , #6 ) ;
#194 = DIRECTION ( 'NONE',  ( 0.000000000000000000, -2.710505431213757141E-16, 1.000000000000000000 ) ) ;
#195 = AXIS2_PLACEMENT_3D ( 'NONE', #183, #1178, #477 ) ;
#196 = ORIENTED_EDGE ( 'NONE', *, *, #640, .F. ) ;
#197 = CARTESIAN_POINT ( 'NONE',  ( 0.000000000000000000, 5.699999999999999289, -14.29999999999999893 ) ) ;
#198 = VERTEX_POINT ( 'NONE', #1135 ) ;
#199 = ORIENTED_EDGE ( 'NONE', *, *, #45, .F. ) ;
#200 = DIRECTION ( 'NONE',  ( 0.000000000000000000, 0.000000000000000000, 1.000000000000000000 ) ) ;
#201 = VERTEX_POINT ( 'NONE', #325 ) ;
#202 = DIRECTION ( 'NONE',  ( -1.000000000000000000, -0.000000000000000000, -0.000000000000000000 ) ) ;
#203 = EDGE_CURVE ( 'NONE', #961, #761, #598, .T. ) ;
#204 = LINE ( 'NONE', #1160, #767 ) ;
#205 = EDGE_CURVE ( 'NONE', #311, #690, #283, .T. ) ;
#206 = DIRECTION ( 'NONE',  ( 0.000000000000000000, -1.853337046983768088E-16, 1.000000000000000000 ) ) ;
#207 = DIRECTION ( 'NONE',  ( -1.000000000000000000, -0.000000000000000000, -0.000000000000000000 ) ) ;
#208 = FACE_OUTER_BOUND ( 'NONE', #575, .T. ) ;
#209 = CARTESIAN_POINT ( 'NONE',  ( 58.10000000000000142, 1.000000000000001554, 3.099999999999997424 ) ) ;
#210 = DIRECTION ( 'NONE',  ( 0.000000000000000000, 1.000000000000000000, -5.421010862427517240E-16 ) ) ;
#211 = DIRECTION ( 'NONE',  ( 1.000000000000000000, 0.000000000000000000, -1.971276677246370040E-16 ) ) ;
#212 = CARTESIAN_POINT ( 'NONE',  ( 33.09999999999999432, -3.252606517456513302E-15, -1.457329690985351379E-15 ) ) ;
#213 = VERTEX_POINT ( 'NONE', #18 ) ;
#214 = CARTESIAN_POINT ( 'NONE',  ( 83.10000000000000853, 1.000000000000001554, 3.099999999999997424 ) ) ;
#215 = ORIENTED_EDGE ( 'NONE', *, *, #605, .F. ) ;
#216 = AXIS2_PLACEMENT_3D ( 'NONE', #1244, #847, #638 ) ;
#217 = PLANE ( 'NONE',  #39 ) ;
#218 = CARTESIAN_POINT ( 'NONE',  ( 100.0000000000000000, 5.699999999999996625, -12.50000000000000000 ) ) ;
#219 = DIRECTION ( 'NONE',  ( 0.000000000000000000, 0.000000000000000000, 1.000000000000000000 ) ) ;
#220 = EDGE_CURVE ( 'NONE', #236, #117, #1, .T. ) ;
#221 = CIRCLE ( 'NONE', #578, 1.799999999999994271 ) ;
#222 = VECTOR ( 'NONE', #1081, 1000.000000000000000 ) ;
#223 = EDGE_CURVE ( 'NONE', #601, #1299, #304, .T. ) ;
#224 = DIRECTION ( 'NONE',  ( 1.000000000000000000, 0.000000000000000000, -1.971276677246370040E-16 ) ) ;
#225 = CARTESIAN_POINT ( 'NONE',  ( 100.0000000000000000, 7.500000000000003553, -17.50000000000000000 ) ) ;
#226 = MECHANICAL_DESIGN_GEOMETRIC_PRESENTATION_REPRESENTATION (  '', ( #556 ), #717 ) ;
#227 = LINE ( 'NONE', #523, #48 ) ;
#228 = EDGE_LOOP ( 'NONE', ( #498, #1297, #894, #1287 ) ) ;
#229 = DIRECTION ( 'NONE',  ( -1.000000000000000000, -0.000000000000000000, -0.000000000000000000 ) ) ;
#230 = ORIENTED_EDGE ( 'NONE', *, *, #205, .F. ) ;
#231 = EDGE_CURVE ( 'NONE', #198, #802, #934, .T. ) ;
#232 = DIRECTION ( 'NONE',  ( 0.000000000000000000, -2.710505431213757141E-16, 1.000000000000000000 ) ) ;
#233 = ORIENTED_EDGE ( 'NONE', *, *, #950, .F. ) ;
#234 = ORIENTED_EDGE ( 'NONE', *, *, #269, .T. ) ;
#235 = ORIENTED_EDGE ( 'NONE', *, *, #474, .T. ) ;
#236 = VERTEX_POINT ( 'NONE', #818 ) ;
#237 = PLANE ( 'NONE',  #463 ) ;
#238 = CARTESIAN_POINT ( 'NONE',  ( 100.0000000000000000, 1.000000000000004441, -11.69999999999999574 ) ) ;
#239 = FACE_OUTER_BOUND ( 'NONE', #228, .T. ) ;
#240 = ORIENTED_EDGE ( 'NONE', *, *, #1187, .F. ) ;
#241 = VECTOR ( 'NONE', #958, 1000.000000000000000 ) ;
#242 = LINE ( 'NONE', #813, #696 ) ;
#243 = DIRECTION ( 'NONE',  ( 0.000000000000000000, 0.000000000000000000, 1.000000000000000000 ) ) ;
#244 = VECTOR ( 'NONE', #107, 1000.000000000000000 ) ;
#245 = AXIS2_PLACEMENT_3D ( 'NONE', #947, #846, #435 ) ;
#246 = ORIENTED_EDGE ( 'NONE', *, *, #715, .T. ) ;
#247 = EDGE_CURVE ( 'NONE', #1205, #961, #1051, .T. ) ;
#248 = EDGE_CURVE ( 'NONE', #352, #25, #666, .T. ) ;
#249 = AXIS2_PLACEMENT_3D ( 'NONE', #1237, #339, #632 ) ;
#250 = DIRECTION ( 'NONE',  ( 0.000000000000000000, 0.000000000000000000, -1.000000000000000000 ) ) ;
#251 = VECTOR ( 'NONE', #1225, 1000.000000000000000 ) ;
#252 = SURFACE_SIDE_STYLE ('',( #514 ) ) ;
#253 = CIRCLE ( 'NONE', #9, 0.8000000000000003775 ) ;
#254 = EDGE_LOOP ( 'NONE', ( #1168, #549, #1224, #686 ) ) ;
#255 = LINE ( 'NONE', #948, #873 ) ;
#256 = VERTEX_POINT ( 'NONE', #416 ) ;
#257 = DIRECTION ( 'NONE',  ( -0.000000000000000000, 1.000000000000000000, 1.853337046983769074E-16 ) ) ;
#258 = CARTESIAN_POINT ( 'NONE',  ( 33.09999999999998721, 1.000000000000001554, 3.099999999999997868 ) ) ;
#259 = ORIENTED_EDGE ( 'NONE', *, *, #702, .F. ) ;
#260 = ORIENTED_EDGE ( 'NONE', *, *, #471, .T. ) ;
#261 = ORIENTED_EDGE ( 'NONE', *, *, #859, .T. ) ;
#262 = ORIENTED_EDGE ( 'NONE', *, *, #248, .T. ) ;
#263 = ORIENTED_EDGE ( 'NONE', *, *, #400, .T. ) ;
#264 = ADVANCED_FACE ( 'NONE', ( #208 ), #512, .F. ) ;
#265 = LINE ( 'NONE', #136, #1250 ) ;
#266 = ORIENTED_EDGE ( 'NONE', *, *, #1046, .F. ) ;
#267 = LINE ( 'NONE', #450, #423 ) ;
#268 = VECTOR ( 'NONE', #615, 1000.000000000000000 ) ;
#269 = EDGE_CURVE ( 'NONE', #816, #1272, #805, .T. ) ;
#270 = CARTESIAN_POINT ( 'NONE',  ( 41.90000000000000568, -3.252606517456513302E-15, -1.457329690985351379E-15 ) ) ;
#271 = EDGE_CURVE ( 'NONE', #1043, #198, #1065, .T. ) ;
#272 = DIRECTION ( 'NONE',  ( 0.000000000000000000, -1.853337046983768088E-16, 1.000000000000000000 ) ) ;
#273 = EDGE_LOOP ( 'NONE', ( #592, #149, #1274, #1270 ) ) ;
#274 = ORIENTED_EDGE ( 'NONE', *, *, #1177, .T. ) ;
#275 = ORIENTED_EDGE ( 'NONE', *, *, #2, .T. ) ;
#276 = ADVANCED_FACE ( 'NONE', ( #130 ), #920, .F. ) ;
#277 = FACE_OUTER_BOUND ( 'NONE', #1004, .T. ) ;
#278 = ORIENTED_EDGE ( 'NONE', *, *, #285, .F. ) ;
#279 = PLANE ( 'NONE',  #1082 ) ;
#280 = DIRECTION ( 'NONE',  ( -1.000000000000000000, -0.000000000000000000, 0.000000000000000000 ) ) ;
#281 = VECTOR ( 'NONE', #41, 1000.000000000000000 ) ;
#282 = AXIS2_PLACEMENT_3D ( 'NONE', #770, #581, #169 ) ;
#283 = LINE ( 'NONE', #225, #1198 ) ;
#284 = ADVANCED_FACE ( 'NONE', ( #1079 ), #365, .F. ) ;
#285 = EDGE_CURVE ( 'NONE', #1073, #825, #255, .T. ) ;
#286 = CARTESIAN_POINT ( 'NONE',  ( 91.90000000000000568, -3.252606517456513302E-15, -1.457329690985351379E-15 ) ) ;
#287 = VERTEX_POINT ( 'NONE', #258 ) ;
#288 = DIRECTION ( 'NONE',  ( 0.000000000000000000, -8.896017825522105362E-16, -1.000000000000000000 ) ) ;
#289 = ORIENTED_EDGE ( 'NONE', *, *, #714, .T. ) ;
#290 = EDGE_CURVE ( 'NONE', #579, #33, #1293, .T. ) ;
#291 = AXIS2_PLACEMENT_3D ( 'NONE', #704, #99, #909 ) ;
#292 =( NAMED_UNIT ( * ) PLANE_ANGLE_UNIT ( ) SI_UNIT ( $, .RADIAN. ) );
#293 = PLANE ( 'NONE',  #740 ) ;
#294 = CIRCLE ( 'NONE', #420, 0.8000000000000003775 ) ;
#295 = EDGE_LOOP ( 'NONE', ( #373, #328, #366, #799 ) ) ;
#296 = ORIENTED_EDGE ( 'NONE', *, *, #69, .F. ) ;
#297 = ORIENTED_EDGE ( 'NONE', *, *, #640, .T. ) ;
#298 = EDGE_CURVE ( 'NONE', #761, #690, #709, .T. ) ;
#299 =( NAMED_UNIT ( * ) PLANE_ANGLE_UNIT ( ) SI_UNIT ( $, .RADIAN. ) );
#300 = CARTESIAN_POINT ( 'NONE',  ( 100.0000000000000000, 1.799999999999996048, -13.49999999999999645 ) ) ;
#301 = FACE_OUTER_BOUND ( 'NONE', #1167, .T. ) ;
#302 = FACE_OUTER_BOUND ( 'NONE', #453, .T. ) ;
#303 = ORIENTED_EDGE ( 'NONE', *, *, #810, .T. ) ;
#304 = LINE ( 'NONE', #1032, #473 ) ;
#305 = LINE ( 'NONE', #1199, #176 ) ;
#306 = CARTESIAN_POINT ( 'NONE',  ( 100.0000000000000000, 7.499999999999997335, -14.30000000000000071 ) ) ;
#307 = DIRECTION ( 'NONE',  ( 1.000000000000000000, 0.000000000000000000, -1.971276677246370040E-16 ) ) ;
#308 = CARTESIAN_POINT ( 'NONE',  ( 0.000000000000000000, 5.699999999999999289, 14.29999999999999893 ) ) ;
#309 = PLANE ( 'NONE',  #892 ) ;
#310 = DIRECTION ( 'NONE',  ( 0.000000000000000000, -1.000000000000000000, 0.000000000000000000 ) ) ;
#311 = VERTEX_POINT ( 'NONE', #559 ) ;
#312 = DIRECTION ( 'NONE',  ( 0.000000000000000000, -1.853337046983768088E-16, 1.000000000000000000 ) ) ;
#313 = EDGE_CURVE ( 'NONE', #561, #201, #982, .T. ) ;
#314 = CARTESIAN_POINT ( 'NONE',  ( 100.0000000000000000, 6.499999999999998224, 17.50000000000000000 ) ) ;
#315 = ORIENTED_EDGE ( 'NONE', *, *, #564, .F. ) ;
#316 = DIRECTION ( 'NONE',  ( 0.000000000000000000, -1.000000000000000000, -1.853337046983769074E-16 ) ) ;
#317 = VECTOR ( 'NONE', #202, 1000.000000000000000 ) ;
#318 = CYLINDRICAL_SURFACE ( 'NONE', #282, 0.8000000000000003775 ) ;
#319 = DIRECTION ( 'NONE',  ( -1.000000000000000000, 0.000000000000000000, 1.971276677246370779E-16 ) ) ;
#320 = CARTESIAN_POINT ( 'NONE',  ( 100.0000000000000000, 1.800000000000004263, -11.69999999999999574 ) ) ;
#321 = DIRECTION ( 'NONE',  ( -1.000000000000000000, -0.000000000000000000, -0.000000000000000000 ) ) ;
#322 = ORIENTED_EDGE ( 'NONE', *, *, #1262, .T. ) ;
#323 = CARTESIAN_POINT ( 'NONE',  ( 100.0000000000000000, 5.699999999999999289, -14.29999999999999893 ) ) ;
#324 = PLANE ( 'NONE',  #826 ) ;
#325 = CARTESIAN_POINT ( 'NONE',  ( 66.90000000000001990, -2.602085213965210642E-15, -3.099999999999999201 ) ) ;
#326 = ORIENTED_EDGE ( 'NONE', *, *, #508, .F. ) ;
#327 = AXIS2_PLACEMENT_3D ( 'NONE', #646, #942, #342 ) ;
#328 = ORIENTED_EDGE ( 'NONE', *, *, #811, .F. ) ;
#329 = CARTESIAN_POINT ( 'NONE',  ( 100.0000000000000000, 1.800000000000004263, -12.49999999999999467 ) ) ;
#330 = DIRECTION ( 'NONE',  ( -1.000000000000000000, -0.000000000000000000, 1.971276677246370779E-16 ) ) ;
#331 = DIRECTION ( 'NONE',  ( -1.000000000000000000, -0.000000000000000000, -0.000000000000000000 ) ) ;
#332 = FACE_BOUND ( 'NONE', #1298, .T. ) ;
#333 = DIRECTION ( 'NONE',  ( -0.000000000000000000, 1.000000000000000000, 1.853337046983769074E-16 ) ) ;
#334 = VECTOR ( 'NONE', #672, 1000.000000000000000 ) ;
#335 = CARTESIAN_POINT ( 'NONE',  ( 83.10000000000000853, 1.000000000000002220, -1.271995986286973412E-15 ) ) ;
#336 = DIRECTION ( 'NONE',  ( 0.000000000000000000, 1.000000000000000000, 1.853337046983769074E-16 ) ) ;
#337 = AXIS2_PLACEMENT_3D ( 'NONE', #1203, #618, #319 ) ;
#338 = VECTOR ( 'NONE', #343, 1000.000000000000000 ) ;
#339 = DIRECTION ( 'NONE',  ( 1.000000000000000000, 0.000000000000000000, -0.000000000000000000 ) ) ;
#340 = CARTESIAN_POINT ( 'NONE',  ( 100.0000000000000000, 1.045852541848039530E-16, 11.69999999999999929 ) ) ;
#341 = ORIENTED_EDGE ( 'NONE', *, *, #421, .T. ) ;
#342 = DIRECTION ( 'NONE',  ( 0.000000000000000000, -2.098455817713881291E-16, 1.000000000000000000 ) ) ;
#343 = DIRECTION ( 'NONE',  ( -0.000000000000000000, 1.000000000000000000, -0.000000000000000000 ) ) ;
#344 = EDGE_CURVE ( 'NONE', #782, #591, #787, .T. ) ;
#345 = CARTESIAN_POINT ( 'NONE',  ( 100.0000000000000000, 1.799999999999995604, -11.70000000000000107 ) ) ;
#346 = EDGE_CURVE ( 'NONE', #959, #213, #97, .T. ) ;
#347 = CARTESIAN_POINT ( 'NONE',  ( 41.90000000000000568, 1.000000000000002220, -1.271995986286973412E-15 ) ) ;
#348 = ORIENTED_EDGE ( 'NONE', *, *, #1133, .T. ) ;
#349 = ORIENTED_EDGE ( 'NONE', *, *, #1133, .F. ) ;
#350 = CARTESIAN_POINT ( 'NONE',  ( 100.0000000000000000, 1.045852541848039530E-16, 11.69999999999999929 ) ) ;
#351 = DIRECTION ( 'NONE',  ( 0.000000000000000000, 1.000000000000000000, 1.853337046983769074E-16 ) ) ;
#352 = VERTEX_POINT ( 'NONE', #1235 ) ;
#353 = LINE ( 'NONE', #821, #75 ) ;
#354 = ORIENTED_EDGE ( 'NONE', *, *, #627, .T. ) ;
#355 = LINE ( 'NONE', #468, #1071 ) ;
#356 = LINE ( 'NONE', #1255, #681 ) ;
#357 = CARTESIAN_POINT ( 'NONE',  ( 100.0000000000000000, 1.045852541848039530E-16, 11.69999999999999929 ) ) ;
#358 = AXIS2_PLACEMENT_3D ( 'NONE', #663, #759, #163 ) ;
#359 =( LENGTH_UNIT ( ) NAMED_UNIT ( * ) SI_UNIT ( .MILLI., .METRE. ) );
#360 = EDGE_CURVE ( 'NONE', #921, #782, #441, .T. ) ;
#361 = VERTEX_POINT ( 'NONE', #134 ) ;
#362 = AXIS2_PLACEMENT_3D ( 'NONE', #829, #848, #1029 ) ;
#363 = ORIENTED_EDGE ( 'NONE', *, *, #1179, .T. ) ;
#364 = PLANE ( 'NONE',  #594 ) ;
#365 = PLANE ( 'NONE',  #668 ) ;
#366 = ORIENTED_EDGE ( 'NONE', *, *, #449, .F. ) ;
#367 = ORIENTED_EDGE ( 'NONE', *, *, #580, .T. ) ;
#368 = FACE_BOUND ( 'NONE', #116, .T. ) ;
#369 = LINE ( 'NONE', #874, #755 ) ;
#370 = LINE ( 'NONE', #120, #756 ) ;
#371 = LINE ( 'NONE', #306, #244 ) ;
#372 = ORIENTED_EDGE ( 'NONE', *, *, #1083, .T. ) ;
#373 = ORIENTED_EDGE ( 'NONE', *, *, #1285, .T. ) ;
#374 = LINE ( 'NONE', #621, #1012 ) ;
#375 = CIRCLE ( 'NONE', #79, 3.099999999999997424 ) ;
#376 = EDGE_CURVE ( 'NONE', #789, #184, #227, .T. ) ;
#377 = EDGE_CURVE ( 'NONE', #54, #546, #886, .T. ) ;
#378 =( GEOMETRIC_REPRESENTATION_CONTEXT ( 3 ) GLOBAL_UNCERTAINTY_ASSIGNED_CONTEXT ( ( #405 ) ) GLOBAL_UNIT_ASSIGNED_CONTEXT ( ( #912, #299, #505 ) ) REPRESENTATION_CONTEXT ( 'NONE', 'WORKASPACE' ) );
#379 = EDGE_LOOP ( 'NONE', ( #893, #461, #895, #5 ) ) ;
#380 = DIRECTION ( 'NONE',  ( -1.000000000000000000, -0.000000000000000000, -0.000000000000000000 ) ) ;
#381 = DIRECTION ( 'NONE',  ( -1.000000000000000000, -0.000000000000000000, 0.000000000000000000 ) ) ;
#382 = ORIENTED_EDGE ( 'NONE', *, *, #471, .F. ) ;
#383 = ORIENTED_EDGE ( 'NONE', *, *, #1110, .T. ) ;
#384 = DIRECTION ( 'NONE',  ( 0.000000000000000000, 0.000000000000000000, 1.000000000000000000 ) ) ;
#385 = VERTEX_POINT ( 'NONE', #647 ) ;
#386 = CARTESIAN_POINT ( 'NONE',  ( 100.0000000000000000, 1.000000000000000000, 11.69999999999999574 ) ) ;
#387 = LINE ( 'NONE', #887, #222 ) ;
#388 = VERTEX_POINT ( 'NONE', #869 ) ;
#389 =( GEOMETRIC_REPRESENTATION_CONTEXT ( 3 ) GLOBAL_UNCERTAINTY_ASSIGNED_CONTEXT ( ( #648 ) ) GLOBAL_UNIT_ASSIGNED_CONTEXT ( ( #359, #1066, #660 ) ) REPRESENTATION_CONTEXT ( 'NONE', 'WORKASPACE' ) );
#390 = FACE_BOUND ( 'NONE', #254, .T. ) ;
#391 = CIRCLE ( 'NONE', #158, 3.099999999999997424 ) ;
#392 = ORIENTED_EDGE ( 'NONE', *, *, #154, .F. ) ;
#393 = FILL_AREA_STYLE ('',( #612 ) ) ;
#394 = ORIENTED_EDGE ( 'NONE', *, *, #923, .F. ) ;
#395 = ORIENTED_EDGE ( 'NONE', *, *, #84, .T. ) ;
#396 = AXIS2_PLACEMENT_3D ( 'NONE', #323, #823, #219 ) ;
#397 = CARTESIAN_POINT ( 'NONE',  ( 0.000000000000000000, 7.499999999999996447, -14.30000000000000071 ) ) ;
#398 = DIRECTION ( 'NONE',  ( 0.000000000000000000, 0.000000000000000000, 1.000000000000000000 ) ) ;
#399 = ORIENTED_EDGE ( 'NONE', *, *, #447, .T. ) ;
#400 = EDGE_CURVE ( 'NONE', #944, #680, #785, .T. ) ;
#401 = ORIENTED_EDGE ( 'NONE', *, *, #402, .T. ) ;
#402 = EDGE_CURVE ( 'NONE', #969, #490, #583, .T. ) ;
#403 = CARTESIAN_POINT ( 'NONE',  ( 83.10000000000000853, 1.000000000000001554, 3.099999999999997868 ) ) ;
#404 = CARTESIAN_POINT ( 'NONE',  ( 58.10000000000000142, -3.903127820947815962E-15, 3.099999999999997424 ) ) ;
#405 = UNCERTAINTY_MEASURE_WITH_UNIT (LENGTH_MEASURE( 1.000000000000000082E-05 ), #912, 'distance_accuracy_value', 'NONE');
#406 = CARTESIAN_POINT ( 'NONE',  ( 0.000000000000000000, 1.800000000000004263, -12.49999999999999467 ) ) ;
#407 = ORIENTED_EDGE ( 'NONE', *, *, #779, .T. ) ;
#408 = VECTOR ( 'NONE', #600, 1000.000000000000000 ) ;
#409 = VECTOR ( 'NONE', #70, 1000.000000000000000 ) ;
#410 = APPLICATION_PROTOCOL_DEFINITION ( 'draft international standard', 'automotive_design', 1998, #492 ) ;
#411 = CARTESIAN_POINT ( 'NONE',  ( 0.000000000000000000, 1.799999999999999822, 12.49999999999999645 ) ) ;
#412 = DIRECTION ( 'NONE',  ( -1.000000000000000000, -0.000000000000000000, -0.000000000000000000 ) ) ;
#413 = LINE ( 'NONE', #606, #50 ) ;
#414 = ORIENTED_EDGE ( 'NONE', *, *, #541, .F. ) ;
#415 = ORIENTED_EDGE ( 'NONE', *, *, #922, .T. ) ;
#416 = CARTESIAN_POINT ( 'NONE',  ( 100.0000000000000000, 6.499999999999997335, -17.50000000000000000 ) ) ;
#417 = CARTESIAN_POINT ( 'NONE',  ( 100.0000000000000000, 1.799999999999999822, 13.49999999999999822 ) ) ;
#418 = AXIS2_PLACEMENT_3D ( 'NONE', #286, #82, #186 ) ;
#419 = ORIENTED_EDGE ( 'NONE', *, *, #177, .T. ) ;
#420 = AXIS2_PLACEMENT_3D ( 'NONE', #197, #280, #499 ) ;
#421 = EDGE_CURVE ( 'NONE', #352, #388, #858, .T. ) ;
#422 = CARTESIAN_POINT ( 'NONE',  ( 100.0000000000000000, 7.500000000000003553, -17.50000000000000000 ) ) ;
#423 = VECTOR ( 'NONE', #750, 1000.000000000000000 ) ;
#424 = AXIS2_PLACEMENT_3D ( 'NONE', #1208, #710, #1009 ) ;
#425 = CYLINDRICAL_SURFACE ( 'NONE', #987, 3.099999999999997424 ) ;
#426 = LINE ( 'NONE', #1122, #842 ) ;
#427 = CARTESIAN_POINT ( 'NONE',  ( 83.10000000000000853, -2.602085213965210642E-15, -3.099999999999997424 ) ) ;
#428 = DIRECTION ( 'NONE',  ( 0.000000000000000000, 1.000000000000000000, -4.448008912761039862E-16 ) ) ;
#429 = CARTESIAN_POINT ( 'NONE',  ( 0.000000000000000000, 6.499999999999999112, -14.29999999999999893 ) ) ;
#430 = CARTESIAN_POINT ( 'NONE',  ( 66.90000000000001990, -2.602085213965210642E-15, -3.099999999999999201 ) ) ;
#431 = EDGE_CURVE ( 'NONE', #1305, #89, #617, .T. ) ;
#432 = DIRECTION ( 'NONE',  ( -1.000000000000000000, -0.000000000000000000, -0.000000000000000000 ) ) ;
#433 = EDGE_LOOP ( 'NONE', ( #945, #1166, #748, #135 ) ) ;
#434 = ORIENTED_EDGE ( 'NONE', *, *, #762, .T. ) ;
#435 = DIRECTION ( 'NONE',  ( 0.000000000000000000, -1.853337046983768088E-16, 1.000000000000000000 ) ) ;
#436 = CARTESIAN_POINT ( 'NONE',  ( 66.90000000000001990, -3.252606517456513302E-15, -1.457329690985351379E-15 ) ) ;
#437 = DIRECTION ( 'NONE',  ( -1.000000000000000000, -0.000000000000000000, 0.000000000000000000 ) ) ;
#438 = VECTOR ( 'NONE', #194, 1000.000000000000000 ) ;
#439 = CYLINDRICAL_SURFACE ( 'NONE', #1156, 0.8000000000000003775 ) ;
#440 = DIRECTION ( 'NONE',  ( 0.000000000000000000, -2.098455817713881291E-16, 1.000000000000000000 ) ) ;
#441 = CIRCLE ( 'NONE', #175, 3.099999999999997424 ) ;
#442 = SURFACE_STYLE_FILL_AREA ( #393 ) ;
#443 = CARTESIAN_POINT ( 'NONE',  ( 100.0000000000000000, 7.500000000000000000, 14.29999999999999716 ) ) ;
#444 = AXIS2_PLACEMENT_3D ( 'NONE', #1115, #108, #1022 ) ;
#445 = DIRECTION ( 'NONE',  ( -1.000000000000000000, -0.000000000000000000, -0.000000000000000000 ) ) ;
#446 = ORIENTED_EDGE ( 'NONE', *, *, #45, .T. ) ;
#447 = EDGE_CURVE ( 'NONE', #54, #213, #456, .T. ) ;
#448 = ORIENTED_EDGE ( 'NONE', *, *, #180, .T. ) ;
#449 = EDGE_CURVE ( 'NONE', #1278, #1157, #253, .T. ) ;
#450 = CARTESIAN_POINT ( 'NONE',  ( 0.000000000000000000, 7.499999999999997335, -14.30000000000000071 ) ) ;
#451 = ADVANCED_FACE ( 'NONE', ( #820 ), #279, .F. ) ;
#452 = DIRECTION ( 'NONE',  ( -1.000000000000000000, 0.000000000000000000, -0.000000000000000000 ) ) ;
#453 = EDGE_LOOP ( 'NONE', ( #275, #976, #1092, #798 ) ) ;
#454 = CARTESIAN_POINT ( 'NONE',  ( 83.10000000000000853, -3.252606517456513302E-15, -1.457329690985351379E-15 ) ) ;
#455 = DIRECTION ( 'NONE',  ( 1.000000000000000000, 0.000000000000000000, 0.000000000000000000 ) ) ;
#456 = LINE ( 'NONE', #138, #1146 ) ;
#457 = ADVANCED_FACE ( 'NONE', ( #145 ), #318, .F. ) ;
#458 = CIRCLE ( 'NONE', #854, 1.799999999999999600 ) ;
#459 = CARTESIAN_POINT ( 'NONE',  ( 16.90000000000000568, -3.903127820947815962E-15, 3.099999999999996092 ) ) ;
#460 = CARTESIAN_POINT ( 'NONE',  ( 100.0000000000000000, 7.500000000000000000, 14.29999999999999716 ) ) ;
#461 = ORIENTED_EDGE ( 'NONE', *, *, #447, .F. ) ;
#462 = EDGE_LOOP ( 'NONE', ( #796, #170, #614, #20 ) ) ;
#463 = AXIS2_PLACEMENT_3D ( 'NONE', #857, #747, #1044 ) ;
#464 = PRODUCT_DEFINITION ( 'UNKNOWN', '', #758, #1103 ) ;
#465 = ORIENTED_EDGE ( 'NONE', *, *, #715, .F. ) ;
#466 = CARTESIAN_POINT ( 'NONE',  ( 91.90000000000000568, 1.000000000000002887, -3.099999999999999201 ) ) ;
#467 = VERTEX_POINT ( 'NONE', #775 ) ;
#468 = CARTESIAN_POINT ( 'NONE',  ( 8.099999999999997868, -3.903127820947815962E-15, 3.099999999999997424 ) ) ;
#469 = ADVANCED_FACE ( 'NONE', ( #695 ), #425, .F. ) ;
#470 = LINE ( 'NONE', #534, #980 ) ;
#471 = EDGE_CURVE ( 'NONE', #889, #490, #484, .T. ) ;
#472 = CARTESIAN_POINT ( 'NONE',  ( 58.10000000000000142, -2.602085213965210642E-15, -3.099999999999997424 ) ) ;
#473 = VECTOR ( 'NONE', #412, 1000.000000000000000 ) ;
#474 = EDGE_CURVE ( 'NONE', #546, #1001, #1062, .T. ) ;
#475 = DIRECTION ( 'NONE',  ( 0.000000000000000000, -1.853337046983768088E-16, 1.000000000000000000 ) ) ;
#476 = ORIENTED_EDGE ( 'NONE', *, *, #231, .F. ) ;
#477 = DIRECTION ( 'NONE',  ( 0.000000000000000000, -1.853337046983768088E-16, 1.000000000000000000 ) ) ;
#478 = ORIENTED_EDGE ( 'NONE', *, *, #290, .F. ) ;
#479 = DIRECTION ( 'NONE',  ( 1.000000000000000000, 0.000000000000000000, -1.971276677246370040E-16 ) ) ;
#480 = CARTESIAN_POINT ( 'NONE',  ( 100.0000000000000000, 1.800000000000000044, 11.69999999999999574 ) ) ;
#481 = AXIS2_PLACEMENT_3D ( 'NONE', #1174, #725, #760 ) ;
#482 = LINE ( 'NONE', #607, #1289 ) ;
#483 = ORIENTED_EDGE ( 'NONE', *, *, #110, .F. ) ;
#484 = LINE ( 'NONE', #77, #409 ) ;
#485 = EDGE_CURVE ( 'NONE', #1001, #57, #871, .T. ) ;
#486 = CARTESIAN_POINT ( 'NONE',  ( 8.099999999999997868, -2.602085213965210642E-15, -3.099999999999997424 ) ) ;
#487 = CARTESIAN_POINT ( 'NONE',  ( 100.0000000000000000, 5.699999999999996625, -14.30000000000000071 ) ) ;
#488 = AXIS2_PLACEMENT_3D ( 'NONE', #308, #807, #902 ) ;
#489 = EDGE_CURVE ( 'NONE', #388, #1230, #387, .T. ) ;
#490 = VERTEX_POINT ( 'NONE', #466 ) ;
#491 = EDGE_CURVE ( 'NONE', #117, #959, #915, .T. ) ;
#492 = APPLICATION_CONTEXT ( 'automotive_design' ) ;
#493 = ORIENTED_EDGE ( 'NONE', *, *, #223, .T. ) ;
#494 = CARTESIAN_POINT ( 'NONE',  ( 100.0000000000000000, 7.499999999999999112, 17.50000000000000000 ) ) ;
#495 = ORIENTED_EDGE ( 'NONE', *, *, #541, .T. ) ;
#496 = LINE ( 'NONE', #1152, #706 ) ;
#497 = CARTESIAN_POINT ( 'NONE',  ( 0.000000000000000000, 1.800000000000000044, 13.49999999999999822 ) ) ;
#498 = ORIENTED_EDGE ( 'NONE', *, *, #166, .T. ) ;
#499 = DIRECTION ( 'NONE',  ( 0.000000000000000000, 0.000000000000000000, 1.000000000000000000 ) ) ;
#500 = CIRCLE ( 'NONE', #1064, 0.8000000000000003775 ) ;
#501 = FACE_OUTER_BOUND ( 'NONE', #1067, .T. ) ;
#502 = CARTESIAN_POINT ( 'NONE',  ( 100.0000000000000000, 1.800000000000004263, -11.69999999999999574 ) ) ;
#503 = CARTESIAN_POINT ( 'NONE',  ( 100.0000000000000000, 0.9999999999999988898, 11.69999999999999574 ) ) ;
#504 = AXIS2_PLACEMENT_3D ( 'NONE', #335, #351, #440 ) ;
#505 =( NAMED_UNIT ( * ) SI_UNIT ( $, .STERADIAN. ) SOLID_ANGLE_UNIT ( ) );
#506 = DIRECTION ( 'NONE',  ( -1.000000000000000000, -0.000000000000000000, -0.000000000000000000 ) ) ;
#507 = CARTESIAN_POINT ( 'NONE',  ( 100.0000000000000000, 6.499999999999999112, 14.29999999999999893 ) ) ;
#508 = EDGE_CURVE ( 'NONE', #185, #1008, #369, .T. ) ;
#509 = ORIENTED_EDGE ( 'NONE', *, *, #1046, .T. ) ;
#510 = EDGE_CURVE ( 'NONE', #698, #944, #1292, .T. ) ;
#511 = DIRECTION ( 'NONE',  ( -0.000000000000000000, 1.000000000000000000, 1.853337046983769074E-16 ) ) ;
#512 = PLANE ( 'NONE',  #481 ) ;
#513 = VERTEX_POINT ( 'NONE', #974 ) ;
#514 = SURFACE_STYLE_FILL_AREA ( #152 ) ;
#515 = CIRCLE ( 'NONE', #327, 3.099999999999997424 ) ;
#516 = PLANE ( 'NONE',  #653 ) ;
#517 = CARTESIAN_POINT ( 'NONE',  ( 100.0000000000000000, 5.699999999999996625, -14.30000000000000071 ) ) ;
#518 = VECTOR ( 'NONE', #330, 1000.000000000000000 ) ;
#519 = CARTESIAN_POINT ( 'NONE',  ( 16.90000000000000568, 1.000000000000001554, 3.099999999999996092 ) ) ;
#520 = ORIENTED_EDGE ( 'NONE', *, *, #989, .F. ) ;
#521 = DIRECTION ( 'NONE',  ( -1.000000000000000000, -0.000000000000000000, -0.000000000000000000 ) ) ;
#522 = AXIS2_PLACEMENT_3D ( 'NONE', #1114, #1121, #919 ) ;
#523 = CARTESIAN_POINT ( 'NONE',  ( 100.0000000000000000, 5.699999999999999289, -13.49999999999999822 ) ) ;
#524 = ORIENTED_EDGE ( 'NONE', *, *, #247, .T. ) ;
#525 = ORIENTED_EDGE ( 'NONE', *, *, #584, .T. ) ;
#526 = ORIENTED_EDGE ( 'NONE', *, *, #16, .F. ) ;
#527 = ORIENTED_EDGE ( 'NONE', *, *, #177, .F. ) ;
#528 = DIRECTION ( 'NONE',  ( -0.000000000000000000, 1.000000000000000000, 1.853337046983769074E-16 ) ) ;
#529 = DIRECTION ( 'NONE',  ( -0.000000000000000000, 1.000000000000000000, 2.710505431213758620E-16 ) ) ;
#530 = LINE ( 'NONE', #731, #738 ) ;
#531 = ORIENTED_EDGE ( 'NONE', *, *, #564, .T. ) ;
#532 = VECTOR ( 'NONE', #51, 1000.000000000000000 ) ;
#533 = FACE_BOUND ( 'NONE', #462, .T. ) ;
#534 = CARTESIAN_POINT ( 'NONE',  ( 100.0000000000000000, 7.500000000000003553, -17.50000000000000000 ) ) ;
#535 = VECTOR ( 'NONE', #229, 1000.000000000000000 ) ;
#536 = CARTESIAN_POINT ( 'NONE',  ( 66.90000000000001990, -3.903127820947815962E-15, 3.099999999999996092 ) ) ;
#537 = DIRECTION ( 'NONE',  ( 0.000000000000000000, 1.000000000000000000, 1.853337046983769074E-16 ) ) ;
#538 = EDGE_CURVE ( 'NONE', #201, #361, #1197, .T. ) ;
#539 = ORIENTED_EDGE ( 'NONE', *, *, #580, .F. ) ;
#540 = DIRECTION ( 'NONE',  ( 1.000000000000000000, 0.000000000000000000, -1.971276677246370040E-16 ) ) ;
#541 = EDGE_CURVE ( 'NONE', #385, #889, #664, .T. ) ;
#542 = AXIS2_PLACEMENT_3D ( 'NONE', #417, #611, #102 ) ;
#543 = CARTESIAN_POINT ( 'NONE',  ( 16.90000000000000568, -3.252606517456513302E-15, -1.457329690985351379E-15 ) ) ;
#544 = ORIENTED_EDGE ( 'NONE', *, *, #1177, .F. ) ;
#545 = ORIENTED_EDGE ( 'NONE', *, *, #271, .F. ) ;
#546 = VERTEX_POINT ( 'NONE', #486 ) ;
#547 = CARTESIAN_POINT ( 'NONE',  ( 100.0000000000000000, 1.799999999999996048, -13.49999999999999645 ) ) ;
#548 = VERTEX_POINT ( 'NONE', #88 ) ;
#549 = ORIENTED_EDGE ( 'NONE', *, *, #344, .F. ) ;
#550 = CARTESIAN_POINT ( 'NONE',  ( 0.000000000000000000, 7.499999999999999112, 17.50000000000000000 ) ) ;
#551 = VECTOR ( 'NONE', #133, 1000.000000000000000 ) ;
#552 = FACE_OUTER_BOUND ( 'NONE', #1180, .T. ) ;
#553 = AXIS2_PLACEMENT_3D ( 'NONE', #693, #1093, #687 ) ;
#554 = ORIENTED_EDGE ( 'NONE', *, *, #973, .F. ) ;
#555 = AXIS2_PLACEMENT_3D ( 'NONE', #1105, #1303, #200 ) ;
#556 = STYLED_ITEM ( 'NONE', ( #164 ), #751 ) ;
#557 = CARTESIAN_POINT ( 'NONE',  ( 100.0000000000000000, 5.699999999999999289, 14.29999999999999893 ) ) ;
#558 = ORIENTED_EDGE ( 'NONE', *, *, #1249, .F. ) ;
#559 = CARTESIAN_POINT ( 'NONE',  ( 100.0000000000000000, 7.500000000000003553, -17.50000000000000000 ) ) ;
#560 = ORIENTED_EDGE ( 'NONE', *, *, #81, .T. ) ;
#561 = VERTEX_POINT ( 'NONE', #994 ) ;
#562 = ORIENTED_EDGE ( 'NONE', *, *, #449, .T. ) ;
#563 = ADVANCED_FACE ( 'NONE', ( #302 ), #190, .F. ) ;
#564 = EDGE_CURVE ( 'NONE', #802, #1278, #128, .T. ) ;
#565 = CARTESIAN_POINT ( 'NONE',  ( 100.0000000000000000, 5.699999999999999289, 14.29999999999999893 ) ) ;
#566 = VECTOR ( 'NONE', #1231, 1000.000000000000000 ) ;
#567 = EDGE_CURVE ( 'NONE', #256, #761, #161, .T. ) ;
#568 = VECTOR ( 'NONE', #168, 1000.000000000000000 ) ;
#569 = FACE_OUTER_BOUND ( 'NONE', #153, .T. ) ;
#570 = LINE ( 'NONE', #427, #1254 ) ;
#571 = ADVANCED_FACE ( 'NONE', ( #596 ), #791, .F. ) ;
#572 = DIRECTION ( 'NONE',  ( -0.000000000000000000, 1.000000000000000000, 1.853337046983769074E-16 ) ) ;
#573 = DIRECTION ( 'NONE',  ( -1.000000000000000000, -0.000000000000000000, -0.000000000000000000 ) ) ;
#574 = ADVANCED_FACE ( 'NONE', ( #900 ), #237, .F. ) ;
#575 = EDGE_LOOP ( 'NONE', ( #303, #1007, #520, #260 ) ) ;
#576 = CARTESIAN_POINT ( 'NONE',  ( 33.09999999999999432, 1.000000000000002887, -3.099999999999997424 ) ) ;
#577 = ORIENTED_EDGE ( 'NONE', *, *, #1130, .T. ) ;
#578 = AXIS2_PLACEMENT_3D ( 'NONE', #868, #455, #250 ) ;
#579 = VERTEX_POINT ( 'NONE', #46 ) ;
#580 = EDGE_CURVE ( 'NONE', #179, #825, #112, .T. ) ;
#581 = DIRECTION ( 'NONE',  ( -1.000000000000000000, -0.000000000000000000, -0.000000000000000000 ) ) ;
#582 = CARTESIAN_POINT ( 'NONE',  ( 41.90000000000000568, 1.000000000000001554, 3.099999999999996092 ) ) ;
#583 = CIRCLE ( 'NONE', #728, 3.099999999999997424 ) ;
#584 = EDGE_CURVE ( 'NONE', #561, #921, #1088, .T. ) ;
#585 = AXIS2_PLACEMENT_3D ( 'NONE', #1223, #1123, #815 ) ;
#586 = CARTESIAN_POINT ( 'NONE',  ( 0.000000000000000000, 5.699999999999999289, -14.29999999999999893 ) ) ;
#587 = ORIENTED_EDGE ( 'NONE', *, *, #1264, .F. ) ;
#588 = CARTESIAN_POINT ( 'NONE',  ( 100.0000000000000000, 6.499999999999999112, 14.29999999999999893 ) ) ;
#589 = DIRECTION ( 'NONE',  ( 0.000000000000000000, 1.897353801849631971E-15, -1.000000000000000000 ) ) ;
#590 = EDGE_LOOP ( 'NONE', ( #679, #230, #1194, #1112 ) ) ;
#591 = VERTEX_POINT ( 'NONE', #1143 ) ;
#592 = ORIENTED_EDGE ( 'NONE', *, *, #154, .T. ) ;
#593 = CARTESIAN_POINT ( 'NONE',  ( 100.0000000000000000, 5.700000000000000178, 14.29999999999999716 ) ) ;
#594 = AXIS2_PLACEMENT_3D ( 'NONE', #1068, #114, #224 ) ;
#595 = FACE_OUTER_BOUND ( 'NONE', #673, .T. ) ;
#596 = FACE_OUTER_BOUND ( 'NONE', #927, .T. ) ;
#597 = ORIENTED_EDGE ( 'NONE', *, *, #655, .T. ) ;
#598 = LINE ( 'NONE', #925, #822 ) ;
#599 = CARTESIAN_POINT ( 'NONE',  ( 100.0000000000000000, 1.799999999999999822, 12.49999999999999645 ) ) ;
#600 = DIRECTION ( 'NONE',  ( 1.000000000000000000, 0.000000000000000000, -1.971276677246370040E-16 ) ) ;
#601 = VERTEX_POINT ( 'NONE', #547 ) ;
#602 = DIRECTION ( 'NONE',  ( 1.000000000000000000, 0.000000000000000000, -1.971276677246370040E-16 ) ) ;
#603 = DIRECTION ( 'NONE',  ( 1.000000000000000000, 0.000000000000000000, 0.000000000000000000 ) ) ;
#604 = EDGE_CURVE ( 'NONE', #89, #287, #375, .T. ) ;
#605 = EDGE_CURVE ( 'NONE', #185, #643, #60, .T. ) ;
#606 = CARTESIAN_POINT ( 'NONE',  ( 0.000000000000000000, 1.800000000000004263, -12.49999999999999645 ) ) ;
#607 = CARTESIAN_POINT ( 'NONE',  ( 0.000000000000000000, 1.045852541848039530E-16, 11.69999999999999929 ) ) ;
#608 = DIRECTION ( 'NONE',  ( 0.000000000000000000, -5.421010862427517240E-16, -1.000000000000000000 ) ) ;
#609 = PRESENTATION_LAYER_ASSIGNMENT (  '', '', ( #556 ) ) ;
#610 = EDGE_LOOP ( 'NONE', ( #234, #527, #554, #1005 ) ) ;
#611 = DIRECTION ( 'NONE',  ( 0.000000000000000000, 0.000000000000000000, -1.000000000000000000 ) ) ;
#612 = FILL_AREA_STYLE_COLOUR ( '', #1109 ) ;
#613 = DIRECTION ( 'NONE',  ( -1.000000000000000000, -0.000000000000000000, -0.000000000000000000 ) ) ;
#614 = ORIENTED_EDGE ( 'NONE', *, *, #431, .F. ) ;
#615 = DIRECTION ( 'NONE',  ( 0.000000000000000000, 1.000000000000000000, 0.000000000000000000 ) ) ;
#616 = COLOUR_RGB ( '',0.7921568627450980005, 0.8196078431372548767, 0.9333333333333333481 ) ;
#617 = LINE ( 'NONE', #576, #966 ) ;
#618 = DIRECTION ( 'NONE',  ( -1.971276677246370779E-16, 1.853337046983769074E-16, -1.000000000000000000 ) ) ;
#619 = SHAPE_DEFINITION_REPRESENTATION ( #830, #751 ) ;
#620 = APPLICATION_PROTOCOL_DEFINITION ( 'draft international standard', 'automotive_design', 1998, #118 ) ;
#621 = CARTESIAN_POINT ( 'NONE',  ( 100.0000000000000000, 5.699999999999999289, 13.49999999999999822 ) ) ;
#622 = DIRECTION ( 'NONE',  ( -1.000000000000000000, -0.000000000000000000, -0.000000000000000000 ) ) ;
#623 = EDGE_LOOP ( 'NONE', ( #401, #382, #414, #1228 ) ) ;
#624 = MECHANICAL_DESIGN_GEOMETRIC_PRESENTATION_REPRESENTATION (  '', ( #797 ), #389 ) ;
#625 = DIRECTION ( 'NONE',  ( 0.000000000000000000, 1.853337046983769074E-16, -1.000000000000000000 ) ) ;
#626 = EDGE_LOOP ( 'NONE', ( #123, #478, #850, #80 ) ) ;
#627 = EDGE_CURVE ( 'NONE', #591, #1045, #515, .T. ) ;
#628 = ORIENTED_EDGE ( 'NONE', *, *, #538, .F. ) ;
#629 = ORIENTED_EDGE ( 'NONE', *, *, #110, .T. ) ;
#630 = DIRECTION ( 'NONE',  ( 0.000000000000000000, -2.098455817713881291E-16, 1.000000000000000000 ) ) ;
#631 = PRODUCT_RELATED_PRODUCT_CATEGORY ( 'part', '', ( #40 ) ) ;
#632 = DIRECTION ( 'NONE',  ( 0.000000000000000000, 0.000000000000000000, 1.000000000000000000 ) ) ;
#633 = CYLINDRICAL_SURFACE ( 'NONE', #85, 1.799999999999994271 ) ;
#634 = DIRECTION ( 'NONE',  ( 1.000000000000000000, 0.000000000000000000, -0.000000000000000000 ) ) ;
#635 = ORIENTED_EDGE ( 'NONE', *, *, #878, .F. ) ;
#636 = LINE ( 'NONE', #849, #76 ) ;
#637 = CARTESIAN_POINT ( 'NONE',  ( 33.09999999999999432, 1.000000000000002220, -1.271995986286973412E-15 ) ) ;
#638 = DIRECTION ( 'NONE',  ( 1.000000000000000000, 0.000000000000000000, -1.971276677246370040E-16 ) ) ;
#639 = VECTOR ( 'NONE', #929, 1000.000000000000000 ) ;
#640 = EDGE_CURVE ( 'NONE', #824, #352, #356, .T. ) ;
#641 = CARTESIAN_POINT ( 'NONE',  ( 0.000000000000000000, 1.800000000000000044, 11.69999999999999929 ) ) ;
#642 = ORIENTED_EDGE ( 'NONE', *, *, #1264, .T. ) ;
#643 = VERTEX_POINT ( 'NONE', #329 ) ;
#644 = DIRECTION ( 'NONE',  ( 0.000000000000000000, -2.098455817713881291E-16, 1.000000000000000000 ) ) ;
#645 = CARTESIAN_POINT ( 'NONE',  ( 83.10000000000000853, -3.903127820947815962E-15, 3.099999999999997424 ) ) ;
#646 = CARTESIAN_POINT ( 'NONE',  ( 58.10000000000000142, 1.000000000000002220, -1.271995986286973412E-15 ) ) ;
#647 = CARTESIAN_POINT ( 'NONE',  ( 91.90000000000000568, 1.660017798950276505E-15, 3.099999999999996092 ) ) ;
#648 = UNCERTAINTY_MEASURE_WITH_UNIT (LENGTH_MEASURE( 1.000000000000000082E-05 ), #359, 'distance_accuracy_value', 'NONE');
#649 = DIRECTION ( 'NONE',  ( 0.000000000000000000, 1.000000000000000000, 1.853337046983769074E-16 ) ) ;
#650 = FACE_OUTER_BOUND ( 'NONE', #610, .T. ) ;
#651 = VECTOR ( 'NONE', #1188, 1000.000000000000000 ) ;
#652 = DIRECTION ( 'NONE',  ( -1.000000000000000000, -0.000000000000000000, -0.000000000000000000 ) ) ;
#653 = AXIS2_PLACEMENT_3D ( 'NONE', #924, #1021, #831 ) ;
#654 = DIRECTION ( 'NONE',  ( 0.000000000000000000, 0.000000000000000000, 1.000000000000000000 ) ) ;
#655 = EDGE_CURVE ( 'NONE', #1299, #184, #636, .T. ) ;
#656 = EDGE_CURVE ( 'NONE', #25, #1305, #1106, .T. ) ;
#657 = AXIS2_PLACEMENT_3D ( 'NONE', #941, #437, #131 ) ;
#658 = DIRECTION ( 'NONE',  ( 0.000000000000000000, -1.853337046983768088E-16, 1.000000000000000000 ) ) ;
#659 = ORIENTED_EDGE ( 'NONE', *, *, #1083, .F. ) ;
#660 =( NAMED_UNIT ( * ) SI_UNIT ( $, .STERADIAN. ) SOLID_ANGLE_UNIT ( ) );
#661 = EDGE_LOOP ( 'NONE', ( #182, #448, #1056, #768 ) ) ;
#662 = LINE ( 'NONE', #1037, #1170 ) ;
#663 = CARTESIAN_POINT ( 'NONE',  ( 16.90000000000000568, -3.252606517456513302E-15, -1.457329690985351379E-15 ) ) ;
#664 = CIRCLE ( 'NONE', #418, 3.099999999999997424 ) ;
#665 = CARTESIAN_POINT ( 'NONE',  ( 16.90000000000000568, 1.000000000000002220, -1.271995986286973412E-15 ) ) ;
#666 = LINE ( 'NONE', #7, #901 ) ;
#667 = VECTOR ( 'NONE', #147, 1000.000000000000000 ) ;
#668 = AXIS2_PLACEMENT_3D ( 'NONE', #460, #736, #837 ) ;
#669 = CARTESIAN_POINT ( 'NONE',  ( 58.10000000000000142, -3.903127820947815962E-15, 3.099999999999997424 ) ) ;
#670 = ORIENTED_EDGE ( 'NONE', *, *, #510, .F. ) ;
#671 = ADVANCED_FACE ( 'NONE', ( #931 ), #1028, .F. ) ;
#672 = DIRECTION ( 'NONE',  ( 0.000000000000000000, -1.000000000000000000, 0.000000000000000000 ) ) ;
#673 = EDGE_LOOP ( 'NONE', ( #383, #544, #819, #419 ) ) ;
#674 = EDGE_CURVE ( 'NONE', #601, #789, #997, .T. ) ;
#675 = DIRECTION ( 'NONE',  ( 1.000000000000000000, 0.000000000000000000, -1.971276677246370040E-16 ) ) ;
#676 = ADVANCED_FACE ( 'NONE', ( #1171 ), #721, .T. ) ;
#677 = EDGE_CURVE ( 'NONE', #467, #67, #1163, .T. ) ;
#678 = LINE ( 'NONE', #812, #1182 ) ;
#679 = ORIENTED_EDGE ( 'NONE', *, *, #298, .T. ) ;
#680 = VERTEX_POINT ( 'NONE', #932 ) ;
#681 = VECTOR ( 'NONE', #148, 1000.000000000000000 ) ;
#682 = VECTOR ( 'NONE', #602, 1000.000000000000000 ) ;
#683 = ADVANCED_FACE ( 'NONE', ( #1061 ), #741, .F. ) ;
#684 = ORIENTED_EDGE ( 'NONE', *, *, #1110, .F. ) ;
#685 = CARTESIAN_POINT ( 'NONE',  ( 8.099999999999997868, -3.903127820947815962E-15, 3.099999999999997424 ) ) ;
#686 = ORIENTED_EDGE ( 'NONE', *, *, #1282, .F. ) ;
#687 = DIRECTION ( 'NONE',  ( 0.000000000000000000, 0.000000000000000000, 1.000000000000000000 ) ) ;
#688 = ORIENTED_EDGE ( 'NONE', *, *, #908, .F. ) ;
#689 = AXIS2_PLACEMENT_3D ( 'NONE', #300, #990, #1090 ) ;
#690 = VERTEX_POINT ( 'NONE', #1242 ) ;
#691 = EDGE_CURVE ( 'NONE', #57, #959, #1279, .T. ) ;
#692 = CYLINDRICAL_SURFACE ( 'NONE', #139, 3.099999999999997424 ) ;
#693 = CARTESIAN_POINT ( 'NONE',  ( 100.0000000000000000, 5.699999999999999289, -14.29999999999999893 ) ) ;
#694 = DIRECTION ( 'NONE',  ( 0.000000000000000000, 1.000000000000000000, -8.896017825522105362E-16 ) ) ;
#695 = FACE_OUTER_BOUND ( 'NONE', #833, .T. ) ;
#696 = VECTOR ( 'NONE', #1139, 1000.000000000000000 ) ;
#697 = ADVANCED_FACE ( 'NONE', ( #13 ), #439, .F. ) ;
#698 = VERTEX_POINT ( 'NONE', #550 ) ;
#699 = CARTESIAN_POINT ( 'NONE',  ( 100.0000000000000000, 7.499999999999996447, -14.30000000000000071 ) ) ;
#700 = CARTESIAN_POINT ( 'NONE',  ( 0.000000000000000000, 5.700000000000000178, 12.49999999999999645 ) ) ;
#701 = ORIENTED_EDGE ( 'NONE', *, *, #766, .F. ) ;
#702 = EDGE_CURVE ( 'NONE', #105, #1045, #1265, .T. ) ;
#703 = EDGE_CURVE ( 'NONE', #57, #54, #752, .T. ) ;
#704 = CARTESIAN_POINT ( 'NONE',  ( 0.000000000000000000, 0.000000000000000000, 0.000000000000000000 ) ) ;
#705 = CARTESIAN_POINT ( 'NONE',  ( 8.099999999999997868, 1.000000000000002887, -3.099999999999997424 ) ) ;
#706 = VECTOR ( 'NONE', #540, 1000.000000000000000 ) ;
#707 = ORIENTED_EDGE ( 'NONE', *, *, #113, .F. ) ;
#708 = CYLINDRICAL_SURFACE ( 'NONE', #939, 0.8000000000000003775 ) ;
#709 = LINE ( 'NONE', #943, #338 ) ;
#710 = DIRECTION ( 'NONE',  ( -0.000000000000000000, 1.000000000000000000, 1.853337046983769074E-16 ) ) ;
#711 = DIRECTION ( 'NONE',  ( -1.000000000000000000, -0.000000000000000000, -0.000000000000000000 ) ) ;
#712 = CIRCLE ( 'NONE', #1220, 1.799999999999999600 ) ;
#713 = CARTESIAN_POINT ( 'NONE',  ( 100.0000000000000000, 1.800000000000004263, -12.49999999999999467 ) ) ;
#714 = EDGE_CURVE ( 'NONE', #1141, #1299, #221, .T. ) ;
#715 = EDGE_CURVE ( 'NONE', #548, #1091, #856, .T. ) ;
#716 = DIRECTION ( 'NONE',  ( 0.000000000000000000, 0.000000000000000000, -1.000000000000000000 ) ) ;
#717 =( GEOMETRIC_REPRESENTATION_CONTEXT ( 3 ) GLOBAL_UNCERTAINTY_ASSIGNED_CONTEXT ( ( #1036 ) ) GLOBAL_UNIT_ASSIGNED_CONTEXT ( ( #896, #292, #999 ) ) REPRESENTATION_CONTEXT ( 'NONE', 'WORKASPACE' ) );
#718 = ORIENTED_EDGE ( 'NONE', *, *, #1060, .T. ) ;
#719 = ORIENTED_EDGE ( 'NONE', *, *, #285, .T. ) ;
#720 = VECTOR ( 'NONE', #806, 1000.000000000000000 ) ;
#721 = CYLINDRICAL_SURFACE ( 'NONE', #1281, 1.799999999999999600 ) ;
#722 = PLANE ( 'NONE',  #362 ) ;
#723 = VECTOR ( 'NONE', #780, 1000.000000000000000 ) ;
#724 = DIRECTION ( 'NONE',  ( -1.000000000000000000, -0.000000000000000000, -0.000000000000000000 ) ) ;
#725 = DIRECTION ( 'NONE',  ( -1.971276677246370779E-16, 1.853337046983769074E-16, -1.000000000000000000 ) ) ;
#726 = EDGE_LOOP ( 'NONE', ( #1132, #659, #1070, #525 ) ) ;
#727 = DIRECTION ( 'NONE',  ( -0.000000000000000000, 1.000000000000000000, 1.853337046983769074E-16 ) ) ;
#728 = AXIS2_PLACEMENT_3D ( 'NONE', #1283, #74, #171 ) ;
#729 = CARTESIAN_POINT ( 'NONE',  ( 100.0000000000000000, 5.700000000000000178, 12.49999999999999645 ) ) ;
#730 = CARTESIAN_POINT ( 'NONE',  ( 83.10000000000000853, -3.252606517456513302E-15, -1.457329690985351379E-15 ) ) ;
#731 = CARTESIAN_POINT ( 'NONE',  ( 91.90000000000000568, -3.903127820947815962E-15, 3.099999999999996092 ) ) ;
#732 = ORIENTED_EDGE ( 'NONE', *, *, #220, .F. ) ;
#733 = ORIENTED_EDGE ( 'NONE', *, *, #69, .T. ) ;
#734 = ORIENTED_EDGE ( 'NONE', *, *, #508, .T. ) ;
#735 = DIRECTION ( 'NONE',  ( 0.000000000000000000, -2.098455817713881291E-16, 1.000000000000000000 ) ) ;
#736 = DIRECTION ( 'NONE',  ( 0.000000000000000000, -1.000000000000000000, -2.710505431213757141E-16 ) ) ;
#737 = MANIFOLD_SOLID_BREP ( 'Slot Cutout Pattern', #1301 ) ;
#738 = VECTOR ( 'NONE', #333, 1000.000000000000000 ) ;
#739 = DIRECTION ( 'NONE',  ( 0.000000000000000000, 0.000000000000000000, 1.000000000000000000 ) ) ;
#740 = AXIS2_PLACEMENT_3D ( 'NONE', #586, #1000, #398 ) ;
#741 = CYLINDRICAL_SURFACE ( 'NONE', #151, 3.099999999999997424 ) ;
#742 = CARTESIAN_POINT ( 'NONE',  ( 8.099999999999997868, -2.602085213965210642E-15, -3.099999999999997424 ) ) ;
#743 = VECTOR ( 'NONE', #211, 1000.000000000000000 ) ;
#744 = PLANE ( 'NONE',  #396 ) ;
#745 = CARTESIAN_POINT ( 'NONE',  ( 0.000000000000000000, 5.699999999999996625, -12.50000000000000000 ) ) ;
#746 = ORIENTED_EDGE ( 'NONE', *, *, #1187, .T. ) ;
#747 = DIRECTION ( 'NONE',  ( -1.971276677246370779E-16, 1.853337046983769074E-16, -1.000000000000000000 ) ) ;
#748 = ORIENTED_EDGE ( 'NONE', *, *, #485, .F. ) ;
#749 = DIRECTION ( 'NONE',  ( 0.000000000000000000, -1.853337046983768088E-16, 1.000000000000000000 ) ) ;
#750 = DIRECTION ( 'NONE',  ( -0.000000000000000000, -1.897353801849631971E-15, 1.000000000000000000 ) ) ;
#751 = ADVANCED_BREP_SHAPE_REPRESENTATION ( 'dinr135-010', ( #737, #291 ), #378 ) ;
#752 = CIRCLE ( 'NONE', #358, 3.099999999999997424 ) ;
#753 = CIRCLE ( 'NONE', #555, 0.8000000000000003775 ) ;
#754 = ORIENTED_EDGE ( 'NONE', *, *, #605, .T. ) ;
#755 = VECTOR ( 'NONE', #573, 1000.000000000000000 ) ;
#756 = VECTOR ( 'NONE', #321, 1000.000000000000000 ) ;
#757 = ORIENTED_EDGE ( 'NONE', *, *, #1108, .T. ) ;
#758 = PRODUCT_DEFINITION_FORMATION_WITH_SPECIFIED_SOURCE ( 'ANY', '', #40, .NOT_KNOWN. ) ;
#759 = DIRECTION ( 'NONE',  ( 0.000000000000000000, 1.000000000000000000, 1.853337046983769074E-16 ) ) ;
#760 = DIRECTION ( 'NONE',  ( -1.000000000000000000, 0.000000000000000000, 1.971276677246370779E-16 ) ) ;
#761 = VERTEX_POINT ( 'NONE', #159 ) ;
#762 = EDGE_CURVE ( 'NONE', #690, #1241, #267, .T. ) ;
#763 = ORIENTED_EDGE ( 'NONE', *, *, #14, .F. ) ;
#764 = ORIENTED_EDGE ( 'NONE', *, *, #1190, .F. ) ;
#765 = ADVANCED_FACE ( 'NONE', ( #1211 ), #364, .F. ) ;
#766 = EDGE_CURVE ( 'NONE', #1241, #1008, #160, .T. ) ;
#767 = VECTOR ( 'NONE', #652, 1000.000000000000000 ) ;
#768 = ORIENTED_EDGE ( 'NONE', *, *, #538, .T. ) ;
#769 = LINE ( 'NONE', #214, #408 ) ;
#770 = CARTESIAN_POINT ( 'NONE',  ( 100.0000000000000000, 1.800000000000000044, 11.69999999999999574 ) ) ;
#771 = VECTOR ( 'NONE', #310, 1000.000000000000000 ) ;
#772 = VECTOR ( 'NONE', #1002, 1000.000000000000000 ) ;
#773 = ADVANCED_FACE ( 'NONE', ( #993 ), #516, .F. ) ;
#774 = DIRECTION ( 'NONE',  ( -1.000000000000000000, -0.000000000000000000, 1.971276677246370779E-16 ) ) ;
#775 = CARTESIAN_POINT ( 'NONE',  ( 100.0000000000000000, 5.700000000000000178, 12.49999999999999645 ) ) ;
#776 = ADVANCED_FACE ( 'NONE', ( #1195 ), #708, .F. ) ;
#777 = ORIENTED_EDGE ( 'NONE', *, *, #762, .F. ) ;
#778 = ORIENTED_EDGE ( 'NONE', *, *, #839, .F. ) ;
#779 = EDGE_CURVE ( 'NONE', #287, #25, #678, .T. ) ;
#780 = DIRECTION ( 'NONE',  ( -0.000000000000000000, -1.853337046983769074E-16, 1.000000000000000000 ) ) ;
#781 = EDGE_CURVE ( 'NONE', #1278, #680, #783, .T. ) ;
#782 = VERTEX_POINT ( 'NONE', #121 ) ;
#783 = LINE ( 'NONE', #1209, #1251 ) ;
#784 = ADVANCED_FACE ( 'NONE', ( #189 ), #309, .F. ) ;
#785 = LINE ( 'NONE', #1074, #95 ) ;
#786 = ORIENTED_EDGE ( 'NONE', *, *, #1285, .F. ) ;
#787 = LINE ( 'NONE', #1269, #518 ) ;
#788 = PLANE ( 'NONE',  #689 ) ;
#789 = VERTEX_POINT ( 'NONE', #827 ) ;
#790 = ORIENTED_EDGE ( 'NONE', *, *, #203, .T. ) ;
#791 = PLANE ( 'NONE',  #1003 ) ;
#792 = CARTESIAN_POINT ( 'NONE',  ( 41.90000000000000568, 1.000000000000002887, -3.099999999999999201 ) ) ;
#793 = ADVANCED_FACE ( 'NONE', ( #1232 ), #324, .F. ) ;
#794 = VERTEX_POINT ( 'NONE', #411 ) ;
#795 = CARTESIAN_POINT ( 'NONE',  ( 0.000000000000000000, 0.9999999999999988898, 11.69999999999999574 ) ) ;
#796 = ORIENTED_EDGE ( 'NONE', *, *, #779, .F. ) ;
#797 = STYLED_ITEM ( 'NONE', ( #930 ), #737 ) ;
#798 = ORIENTED_EDGE ( 'NONE', *, *, #376, .T. ) ;
#799 = ORIENTED_EDGE ( 'NONE', *, *, #781, .T. ) ;
#800 = CYLINDRICAL_SURFACE ( 'NONE', #953, 3.099999999999997424 ) ;
#801 = CARTESIAN_POINT ( 'NONE',  ( 33.09999999999999432, -2.602085213965210642E-15, -3.099999999999997424 ) ) ;
#802 = VERTEX_POINT ( 'NONE', #314 ) ;
#803 = CARTESIAN_POINT ( 'NONE',  ( 16.90000000000000213, -2.602085213965210642E-15, -3.099999999999999201 ) ) ;
#804 = FACE_OUTER_BOUND ( 'NONE', #187, .T. ) ;
#805 = LINE ( 'NONE', #126, #1252 ) ;
#806 = DIRECTION ( 'NONE',  ( -1.000000000000000000, -0.000000000000000000, 1.971276677246370779E-16 ) ) ;
#807 = DIRECTION ( 'NONE',  ( -1.000000000000000000, -0.000000000000000000, -0.000000000000000000 ) ) ;
#808 = CARTESIAN_POINT ( 'NONE',  ( 100.0000000000000000, 7.499999999999999112, 17.50000000000000000 ) ) ;
#809 = DIRECTION ( 'NONE',  ( -1.000000000000000000, -0.000000000000000000, 0.000000000000000000 ) ) ;
#810 = EDGE_CURVE ( 'NONE', #490, #179, #1049, .T. ) ;
#811 = EDGE_CURVE ( 'NONE', #1157, #816, #374, .T. ) ;
#812 = CARTESIAN_POINT ( 'NONE',  ( 33.09999999999999432, 1.000000000000001554, 3.099999999999997424 ) ) ;
#813 = CARTESIAN_POINT ( 'NONE',  ( 100.0000000000000000, 1.800000000000000044, 13.49999999999999822 ) ) ;
#814 = AXIS2_PLACEMENT_3D ( 'NONE', #350, #1253, #1052 ) ;
#815 = DIRECTION ( 'NONE',  ( 0.000000000000000000, -1.853337046983768088E-16, 1.000000000000000000 ) ) ;
#816 = VERTEX_POINT ( 'NONE', #1026 ) ;
#817 = DIRECTION ( 'NONE',  ( 0.000000000000000000, 0.000000000000000000, 1.000000000000000000 ) ) ;
#818 = CARTESIAN_POINT ( 'NONE',  ( 8.099999999999997868, 1.000000000000002887, -3.099999999999997424 ) ) ;
#819 = ORIENTED_EDGE ( 'NONE', *, *, #975, .F. ) ;
#820 = FACE_OUTER_BOUND ( 'NONE', #928, .T. ) ;
#821 = CARTESIAN_POINT ( 'NONE',  ( 8.099999999999997868, -2.602085213965210642E-15, -3.099999999999997424 ) ) ;
#822 = VECTOR ( 'NONE', #608, 1000.000000000000000 ) ;
#823 = DIRECTION ( 'NONE',  ( -1.000000000000000000, -0.000000000000000000, 0.000000000000000000 ) ) ;
#824 = VERTEX_POINT ( 'NONE', #1128 ) ;
#825 = VERTEX_POINT ( 'NONE', #403 ) ;
#826 = AXIS2_PLACEMENT_3D ( 'NONE', #1024, #210, #1218 ) ;
#827 = CARTESIAN_POINT ( 'NONE',  ( 100.0000000000000000, 5.699999999999999289, -13.49999999999999822 ) ) ;
#828 = DIRECTION ( 'NONE',  ( 0.000000000000000000, 0.000000000000000000, 1.000000000000000000 ) ) ;
#829 = CARTESIAN_POINT ( 'NONE',  ( 100.0000000000000000, 1.799999999999999822, 12.49999999999999645 ) ) ;
#830 = PRODUCT_DEFINITION_SHAPE ( 'NONE', 'NONE',  #464 ) ;
#831 = DIRECTION ( 'NONE',  ( -1.000000000000000000, 0.000000000000000000, 1.971276677246370779E-16 ) ) ;
#832 = ORIENTED_EDGE ( 'NONE', *, *, #714, .F. ) ;
#833 = EDGE_LOOP ( 'NONE', ( #1013, #926, #1099, #262 ) ) ;
#834 = ORIENTED_EDGE ( 'NONE', *, *, #1060, .F. ) ;
#835 = DIRECTION ( 'NONE',  ( -1.000000000000000000, -0.000000000000000000, 1.971276677246370779E-16 ) ) ;
#836 = DIRECTION ( 'NONE',  ( -0.000000000000000000, 1.000000000000000000, 1.853337046983769074E-16 ) ) ;
#837 = DIRECTION ( 'NONE',  ( 0.000000000000000000, 2.710505431213757141E-16, -1.000000000000000000 ) ) ;
#838 = FACE_OUTER_BOUND ( 'NONE', #56, .T. ) ;
#839 = EDGE_CURVE ( 'NONE', #855, #1141, #482, .T. ) ;
#840 = VECTOR ( 'NONE', #1294, 1000.000000000000000 ) ;
#841 = ORIENTED_EDGE ( 'NONE', *, *, #140, .F. ) ;
#842 = VECTOR ( 'NONE', #1210, 1000.000000000000000 ) ;
#843 = CARTESIAN_POINT ( 'NONE',  ( 100.0000000000000000, 5.699999999999999289, 13.49999999999999822 ) ) ;
#844 = EDGE_CURVE ( 'NONE', #546, #236, #353, .T. ) ;
#845 = CYLINDRICAL_SURFACE ( 'NONE', #424, 3.099999999999997424 ) ;
#846 = DIRECTION ( 'NONE',  ( -0.000000000000000000, 1.000000000000000000, 1.853337046983769074E-16 ) ) ;
#847 = DIRECTION ( 'NONE',  ( 1.971276677246370040E-16, -1.853337046983769074E-16, 1.000000000000000000 ) ) ;
#848 = DIRECTION ( 'NONE',  ( 0.000000000000000000, 0.000000000000000000, 1.000000000000000000 ) ) ;
#849 = CARTESIAN_POINT ( 'NONE',  ( 0.000000000000000000, 1.799999999999996048, -13.49999999999999645 ) ) ;
#850 = ORIENTED_EDGE ( 'NONE', *, *, #880, .F. ) ;
#851 = ORIENTED_EDGE ( 'NONE', *, *, #973, .T. ) ;
#852 = PLANE ( 'NONE',  #1191 ) ;
#853 = DIRECTION ( 'NONE',  ( 0.000000000000000000, -1.853337046983768088E-16, 1.000000000000000000 ) ) ;
#854 = AXIS2_PLACEMENT_3D ( 'NONE', #487, #1200, #1202 ) ;
#855 = VERTEX_POINT ( 'NONE', #1134 ) ;
#856 = LINE ( 'NONE', #357, #532 ) ;
#857 = CARTESIAN_POINT ( 'NONE',  ( 8.099999999999997868, -2.602085213965210642E-15, -3.099999999999997424 ) ) ;
#858 = CIRCLE ( 'NONE', #1095, 3.099999999999997424 ) ;
#859 = EDGE_CURVE ( 'NONE', #789, #1205, #1027, .T. ) ;
#860 = DIRECTION ( 'NONE',  ( -0.000000000000000000, 1.000000000000000000, 1.853337046983769074E-16 ) ) ;
#861 = VECTOR ( 'NONE', #49, 1000.000000000000000 ) ;
#862 = ADVANCED_FACE ( 'NONE', ( #12 ), #217, .F. ) ;
#863 = FILL_AREA_STYLE_COLOUR ( '', #616 ) ;
#864 = EDGE_LOOP ( 'NONE', ( #577, #841, #763, #104 ) ) ;
#865 = ORIENTED_EDGE ( 'NONE', *, *, #180, .F. ) ;
#866 = EDGE_LOOP ( 'NONE', ( #446, #707, #545, #757 ) ) ;
#867 = ORIENTED_EDGE ( 'NONE', *, *, #922, .F. ) ;
#868 = CARTESIAN_POINT ( 'NONE',  ( 0.000000000000000000, 1.799999999999995604, -11.70000000000000107 ) ) ;
#869 = CARTESIAN_POINT ( 'NONE',  ( 41.90000000000000568, -2.602085213965210642E-15, -3.099999999999999201 ) ) ;
#870 = VECTOR ( 'NONE', #109, 1000.000000000000000 ) ;
#871 = LINE ( 'NONE', #685, #1183 ) ;
#872 = ADVANCED_FACE ( 'NONE', ( #804 ), #692, .F. ) ;
#873 = VECTOR ( 'NONE', #1144, 1000.000000000000000 ) ;
#874 = CARTESIAN_POINT ( 'NONE',  ( 100.0000000000000000, 5.699999999999996625, -12.50000000000000000 ) ) ;
#875 = CIRCLE ( 'NONE', #657, 0.8000000000000003775 ) ;
#876 = ORIENTED_EDGE ( 'NONE', *, *, #166, .F. ) ;
#877 = ADVANCED_FACE ( 'NONE', ( #1125 ), #852, .F. ) ;
#878 = EDGE_CURVE ( 'NONE', #825, #969, #769, .T. ) ;
#879 = ORIENTED_EDGE ( 'NONE', *, *, #844, .T. ) ;
#880 = EDGE_CURVE ( 'NONE', #643, #579, #500, .T. ) ;
#881 = ADVANCED_FACE ( 'NONE', ( #951 ), #965, .F. ) ;
#882 = LINE ( 'NONE', #1213, #317 ) ;
#883 = ORIENTED_EDGE ( 'NONE', *, *, #1179, .F. ) ;
#884 = DIRECTION ( 'NONE',  ( 1.971276677246370040E-16, -1.853337046983769074E-16, 1.000000000000000000 ) ) ;
#885 = ORIENTED_EDGE ( 'NONE', *, *, #248, .F. ) ;
#886 = LINE ( 'NONE', #742, #1233 ) ;
#887 = CARTESIAN_POINT ( 'NONE',  ( 33.09999999999999432, -2.602085213965210642E-15, -3.099999999999997424 ) ) ;
#888 = ADVANCED_FACE ( 'NONE', ( #143 ), #1118, .F. ) ;
#889 = VERTEX_POINT ( 'NONE', #1006 ) ;
#890 = ORIENTED_EDGE ( 'NONE', *, *, #377, .T. ) ;
#891 = CARTESIAN_POINT ( 'NONE',  ( 0.000000000000000000, 7.500000000000000000, 14.29999999999999716 ) ) ;
#892 = AXIS2_PLACEMENT_3D ( 'NONE', #1229, #1234, #307 ) ;
#893 = ORIENTED_EDGE ( 'NONE', *, *, #346, .T. ) ;
#894 = ORIENTED_EDGE ( 'NONE', *, *, #65, .F. ) ;
#895 = ORIENTED_EDGE ( 'NONE', *, *, #703, .F. ) ;
#896 =( LENGTH_UNIT ( ) NAMED_UNIT ( * ) SI_UNIT ( .MILLI., .METRE. ) );
#897 = LINE ( 'NONE', #713, #870 ) ;
#898 = AXIS2_PLACEMENT_3D ( 'NONE', #35, #1248, #1256 ) ;
#899 = VERTEX_POINT ( 'NONE', #406 ) ;
#900 = FACE_OUTER_BOUND ( 'NONE', #1131, .T. ) ;
#901 = VECTOR ( 'NONE', #1129, 1000.000000000000000 ) ;
#902 = DIRECTION ( 'NONE',  ( 0.000000000000000000, 0.000000000000000000, -1.000000000000000000 ) ) ;
#903 = ADVANCED_FACE ( 'NONE', ( #650 ), #1304, .F. ) ;
#904 = CARTESIAN_POINT ( 'NONE',  ( 100.0000000000000000, 1.800000000000004263, -12.49999999999999645 ) ) ;
#905 = DIRECTION ( 'NONE',  ( 0.000000000000000000, 0.000000000000000000, 1.000000000000000000 ) ) ;
#906 = EDGE_CURVE ( 'NONE', #213, #236, #111, .T. ) ;
#907 = EDGE_LOOP ( 'NONE', ( #289, #86, #834, #509 ) ) ;
#908 = EDGE_CURVE ( 'NONE', #1275, #1206, #882, .T. ) ;
#909 = DIRECTION ( 'NONE',  ( 1.000000000000000000, 0.000000000000000000, 0.000000000000000000 ) ) ;
#910 = CARTESIAN_POINT ( 'NONE',  ( 66.90000000000001990, 1.000000000000001554, 3.099999999999996092 ) ) ;
#911 = ORIENTED_EDGE ( 'NONE', *, *, #205, .T. ) ;
#912 =( LENGTH_UNIT ( ) NAMED_UNIT ( * ) SI_UNIT ( .MILLI., .METRE. ) );
#913 = PLANE ( 'NONE',  #1186 ) ;
#914 = CIRCLE ( 'NONE', #992, 3.099999999999997424 ) ;
#915 = LINE ( 'NONE', #62, #568 ) ;
#916 = DIRECTION ( 'NONE',  ( 0.000000000000000000, 1.000000000000000000, 1.853337046983769074E-16 ) ) ;
#917 = CIRCLE ( 'NONE', #488, 0.8000000000000003775 ) ;
#918 = AXIS2_PLACEMENT_3D ( 'NONE', #347, #649, #735 ) ;
#919 = DIRECTION ( 'NONE',  ( 0.000000000000000000, 0.000000000000000000, -1.000000000000000000 ) ) ;
#920 = PLANE ( 'NONE',  #216 ) ;
#921 = VERTEX_POINT ( 'NONE', #910 ) ;
#922 = EDGE_CURVE ( 'NONE', #1230, #824, #914, .T. ) ;
#923 = EDGE_CURVE ( 'NONE', #643, #899, #897, .T. ) ;
#924 = CARTESIAN_POINT ( 'NONE',  ( 33.09999999999999432, -2.602085213965210642E-15, -3.099999999999997424 ) ) ;
#925 = CARTESIAN_POINT ( 'NONE',  ( 0.000000000000000000, 6.499999999999999112, -14.29999999999999893 ) ) ;
#926 = ORIENTED_EDGE ( 'NONE', *, *, #156, .F. ) ;
#927 = EDGE_LOOP ( 'NONE', ( #263, #971, #315, #348 ) ) ;
#928 = EDGE_LOOP ( 'NONE', ( #155, #1181, #865, #124 ) ) ;
#929 = DIRECTION ( 'NONE',  ( -1.000000000000000000, -0.000000000000000000, -0.000000000000000000 ) ) ;
#930 = PRESENTATION_STYLE_ASSIGNMENT (( #964 ) ) ;
#931 = FACE_OUTER_BOUND ( 'NONE', #726, .T. ) ;
#932 = CARTESIAN_POINT ( 'NONE',  ( 0.000000000000000000, 6.499999999999999112, 14.29999999999999893 ) ) ;
#933 = DIRECTION ( 'NONE',  ( 0.000000000000000000, -1.853337046983768088E-16, 1.000000000000000000 ) ) ;
#934 = LINE ( 'NONE', #808, #771 ) ;
#935 = CARTESIAN_POINT ( 'NONE',  ( 100.0000000000000000, 1.800000000000000044, 11.69999999999999929 ) ) ;
#936 = CYLINDRICAL_SURFACE ( 'NONE', #1172, 3.099999999999997424 ) ;
#937 = CARTESIAN_POINT ( 'NONE',  ( 58.10000000000000142, 1.000000000000001554, 3.099999999999997868 ) ) ;
#938 = ORIENTED_EDGE ( 'NONE', *, *, #489, .T. ) ;
#939 = AXIS2_PLACEMENT_3D ( 'NONE', #320, #724, #817 ) ;
#940 = DIRECTION ( 'NONE',  ( 0.000000000000000000, -1.853337046983768088E-16, 1.000000000000000000 ) ) ;
#941 = CARTESIAN_POINT ( 'NONE',  ( 0.000000000000000000, 1.800000000000000044, 11.69999999999999574 ) ) ;
#942 = DIRECTION ( 'NONE',  ( 0.000000000000000000, 1.000000000000000000, 1.853337046983769074E-16 ) ) ;
#943 = CARTESIAN_POINT ( 'NONE',  ( 0.000000000000000000, 7.500000000000003553, -17.50000000000000000 ) ) ;
#944 = VERTEX_POINT ( 'NONE', #1154 ) ;
#945 = ORIENTED_EDGE ( 'NONE', *, *, #491, .T. ) ;
#946 = ORIENTED_EDGE ( 'NONE', *, *, #766, .T. ) ;
#947 = CARTESIAN_POINT ( 'NONE',  ( 66.90000000000001990, -3.252606517456513302E-15, -1.457329690985351379E-15 ) ) ;
#948 = CARTESIAN_POINT ( 'NONE',  ( 83.10000000000000853, -3.903127820947815962E-15, 3.099999999999997424 ) ) ;
#949 = EDGE_LOOP ( 'NONE', ( #790, #1086, #483, #524 ) ) ;
#950 = EDGE_CURVE ( 'NONE', #1073, #385, #496, .T. ) ;
#951 = FACE_OUTER_BOUND ( 'NONE', #977, .T. ) ;
#952 = CARTESIAN_POINT ( 'NONE',  ( 33.09999999999999432, -3.252606517456513302E-15, -1.457329690985351379E-15 ) ) ;
#953 = AXIS2_PLACEMENT_3D ( 'NONE', #730, #37, #129 ) ;
#954 = LINE ( 'NONE', #1142, #1175 ) ;
#955 = DIRECTION ( 'NONE',  ( -0.000000000000000000, 1.000000000000000000, 1.853337046983769074E-16 ) ) ;
#956 = DIRECTION ( 'NONE',  ( 0.000000000000000000, 0.000000000000000000, -1.000000000000000000 ) ) ;
#957 = VERTEX_POINT ( 'NONE', #4 ) ;
#958 = DIRECTION ( 'NONE',  ( -0.000000000000000000, 1.000000000000000000, 1.853337046983769074E-16 ) ) ;
#959 = VERTEX_POINT ( 'NONE', #519 ) ;
#960 = CARTESIAN_POINT ( 'NONE',  ( 100.0000000000000000, 7.499999999999999112, 17.50000000000000000 ) ) ;
#961 = VERTEX_POINT ( 'NONE', #429 ) ;
#962 = DIRECTION ( 'NONE',  ( -0.000000000000000000, 1.000000000000000000, 1.853337046983769074E-16 ) ) ;
#963 = ORIENTED_EDGE ( 'NONE', *, *, #269, .F. ) ;
#964 = SURFACE_STYLE_USAGE ( .BOTH. , #252 ) ;
#965 = CYLINDRICAL_SURFACE ( 'NONE', #585, 3.099999999999997424 ) ;
#966 = VECTOR ( 'NONE', #178, 1000.000000000000000 ) ;
#967 = VECTOR ( 'NONE', #622, 1000.000000000000000 ) ;
#968 = EDGE_LOOP ( 'NONE', ( #1096, #1117, #1247, #879 ) ) ;
#969 = VERTEX_POINT ( 'NONE', #1136 ) ;
#970 = DIRECTION ( 'NONE',  ( -1.000000000000000000, -0.000000000000000000, 1.971276677246370779E-16 ) ) ;
#971 = ORIENTED_EDGE ( 'NONE', *, *, #781, .F. ) ;
#972 = ADVANCED_FACE ( 'NONE', ( #239 ), #722, .F. ) ;
#973 = EDGE_CURVE ( 'NONE', #1157, #94, #1277, .T. ) ;
#974 = CARTESIAN_POINT ( 'NONE',  ( 83.10000000000000853, -2.602085213965210642E-15, -3.099999999999997424 ) ) ;
#975 = EDGE_CURVE ( 'NONE', #94, #548, #1076, .T. ) ;
#976 = ORIENTED_EDGE ( 'NONE', *, *, #247, .F. ) ;
#977 = EDGE_LOOP ( 'NONE', ( #354, #259, #764, #322 ) ) ;
#978 = ADVANCED_FACE ( 'NONE', ( #301 ), #800, .F. ) ;
#979 = DIRECTION ( 'NONE',  ( -0.000000000000000000, 1.000000000000000000, 1.853337046983769074E-16 ) ) ;
#980 = VECTOR ( 'NONE', #38, 1000.000000000000000 ) ;
#981 = EDGE_LOOP ( 'NONE', ( #733, #688, #173, #1055 ) ) ;
#982 = CIRCLE ( 'NONE', #53, 3.099999999999997424 ) ;
#983 = DIRECTION ( 'NONE',  ( 0.000000000000000000, 0.000000000000000000, -1.000000000000000000 ) ) ;
#984 = CIRCLE ( 'NONE', #1023, 3.099999999999997424 ) ;
#985 = ADVANCED_FACE ( 'NONE', ( #838 ), #744, .F. ) ;
#986 = ORIENTED_EDGE ( 'NONE', *, *, #81, .F. ) ;
#987 = AXIS2_PLACEMENT_3D ( 'NONE', #270, #979, #475 ) ;
#988 = ADVANCED_FACE ( 'NONE', ( #595 ), #30, .T. ) ;
#989 = EDGE_CURVE ( 'NONE', #889, #513, #662, .T. ) ;
#990 = DIRECTION ( 'NONE',  ( -0.000000000000000000, 4.448008912761040848E-16, 1.000000000000000000 ) ) ;
#991 = ORIENTED_EDGE ( 'NONE', *, *, #376, .F. ) ;
#992 = AXIS2_PLACEMENT_3D ( 'NONE', #212, #916, #312 ) ;
#993 = FACE_OUTER_BOUND ( 'NONE', #142, .T. ) ;
#994 = CARTESIAN_POINT ( 'NONE',  ( 66.90000000000000568, 1.660017798950276505E-15, 3.099999999999996092 ) ) ;
#995 = ADVANCED_FACE ( 'NONE', ( #368, #332, #1048, #1011, #1102 ), #1054, .F. ) ;
#996 = DIRECTION ( 'NONE',  ( 0.000000000000000000, 1.000000000000000000, 0.000000000000000000 ) ) ;
#997 = LINE ( 'NONE', #1158, #1126 ) ;
#998 = FACE_BOUND ( 'NONE', #1119, .T. ) ;
#999 =( NAMED_UNIT ( * ) SI_UNIT ( $, .STERADIAN. ) SOLID_ANGLE_UNIT ( ) );
#1000 = DIRECTION ( 'NONE',  ( -1.000000000000000000, -0.000000000000000000, 0.000000000000000000 ) ) ;
#1001 = VERTEX_POINT ( 'NONE', #1153 ) ;
#1002 = DIRECTION ( 'NONE',  ( -1.000000000000000000, -0.000000000000000000, -0.000000000000000000 ) ) ;
#1003 = AXIS2_PLACEMENT_3D ( 'NONE', #507, #529, #1038 ) ;
#1004 = EDGE_LOOP ( 'NONE', ( #642, #394, #215, #734 ) ) ;
#1005 = ORIENTED_EDGE ( 'NONE', *, *, #811, .T. ) ;
#1006 = CARTESIAN_POINT ( 'NONE',  ( 91.90000000000000568, -2.602085213965210642E-15, -3.099999999999999201 ) ) ;
#1007 = ORIENTED_EDGE ( 'NONE', *, *, #1161, .F. ) ;
#1008 = VERTEX_POINT ( 'NONE', #745 ) ;
#1009 = DIRECTION ( 'NONE',  ( 0.000000000000000000, -1.853337046983768088E-16, 1.000000000000000000 ) ) ;
#1010 = CARTESIAN_POINT ( 'NONE',  ( 100.0000000000000000, 6.499999999999999112, -14.29999999999999893 ) ) ;
#1011 = FACE_BOUND ( 'NONE', #661, .T. ) ;
#1012 = VECTOR ( 'NONE', #613, 1000.000000000000000 ) ;
#1013 = ORIENTED_EDGE ( 'NONE', *, *, #656, .T. ) ;
#1014 = VECTOR ( 'NONE', #1050, 1000.000000000000000 ) ;
#1015 = AXIS2_PLACEMENT_3D ( 'NONE', #517, #207, #828 ) ;
#1016 = DIRECTION ( 'NONE',  ( 1.000000000000000000, 0.000000000000000000, -1.971276677246370040E-16 ) ) ;
#1017 = CARTESIAN_POINT ( 'NONE',  ( 100.0000000000000000, 1.000000000000000000, 11.69999999999999574 ) ) ;
#1018 = EDGE_CURVE ( 'NONE', #385, #969, #530, .T. ) ;
#1019 = ORIENTED_EDGE ( 'NONE', *, *, #810, .F. ) ;
#1020 = CARTESIAN_POINT ( 'NONE',  ( 100.0000000000000000, 6.499999999999999112, -14.29999999999999893 ) ) ;
#1021 = DIRECTION ( 'NONE',  ( -1.971276677246370779E-16, 1.853337046983769074E-16, -1.000000000000000000 ) ) ;
#1022 = DIRECTION ( 'NONE',  ( 0.000000000000000000, -2.098455817713881291E-16, 1.000000000000000000 ) ) ;
#1023 = AXIS2_PLACEMENT_3D ( 'NONE', #1155, #90, #206 ) ;
#1024 = CARTESIAN_POINT ( 'NONE',  ( 100.0000000000000000, 6.499999999999999112, -14.29999999999999893 ) ) ;
#1025 = CARTESIAN_POINT ( 'NONE',  ( 83.10000000000000853, 1.000000000000002887, -3.099999999999997424 ) ) ;
#1026 = CARTESIAN_POINT ( 'NONE',  ( 0.000000000000000000, 5.699999999999999289, 13.49999999999999822 ) ) ;
#1027 = CIRCLE ( 'NONE', #1030, 0.8000000000000003775 ) ;
#1028 = CYLINDRICAL_SURFACE ( 'NONE', #245, 3.099999999999997424 ) ;
#1029 = DIRECTION ( 'NONE',  ( 1.000000000000000000, 0.000000000000000000, -0.000000000000000000 ) ) ;
#1030 = AXIS2_PLACEMENT_3D ( 'NONE', #21, #125, #119 ) ;
#1031 = CARTESIAN_POINT ( 'NONE',  ( 83.10000000000000853, 1.000000000000002887, -3.099999999999997424 ) ) ;
#1032 = CARTESIAN_POINT ( 'NONE',  ( 100.0000000000000000, 1.799999999999996048, -13.49999999999999645 ) ) ;
#1033 = ORIENTED_EDGE ( 'NONE', *, *, #975, .T. ) ;
#1034 = EDGE_LOOP ( 'NONE', ( #101, #266, #465, #274 ) ) ;
#1035 = CARTESIAN_POINT ( 'NONE',  ( 100.0000000000000000, 1.799999999999999822, 13.49999999999999822 ) ) ;
#1036 = UNCERTAINTY_MEASURE_WITH_UNIT (LENGTH_MEASURE( 1.000000000000000082E-05 ), #896, 'distance_accuracy_value', 'NONE');
#1037 = CARTESIAN_POINT ( 'NONE',  ( 83.10000000000000853, -2.602085213965210642E-15, -3.099999999999997424 ) ) ;
#1038 = DIRECTION ( 'NONE',  ( 0.000000000000000000, -2.710505431213758620E-16, 1.000000000000000000 ) ) ;
#1039 = DIRECTION ( 'NONE',  ( 0.000000000000000000, -2.098455817713881291E-16, 1.000000000000000000 ) ) ;
#1040 = LINE ( 'NONE', #1078, #1290 ) ;
#1041 = CARTESIAN_POINT ( 'NONE',  ( 0.000000000000000000, 7.500000000000000000, 14.29999999999999716 ) ) ;
#1042 = ORIENTED_EDGE ( 'NONE', *, *, #510, .T. ) ;
#1043 = VERTEX_POINT ( 'NONE', #443 ) ;
#1044 = DIRECTION ( 'NONE',  ( -1.000000000000000000, 0.000000000000000000, 1.971276677246370779E-16 ) ) ;
#1045 = VERTEX_POINT ( 'NONE', #937 ) ;
#1046 = EDGE_CURVE ( 'NONE', #1091, #1141, #265, .T. ) ;
#1047 = DIRECTION ( 'NONE',  ( 0.000000000000000000, 0.000000000000000000, 1.000000000000000000 ) ) ;
#1048 = FACE_OUTER_BOUND ( 'NONE', #1034, .T. ) ;
#1049 = LINE ( 'NONE', #1031, #251 ) ;
#1050 = DIRECTION ( 'NONE',  ( -1.000000000000000000, -0.000000000000000000, -0.000000000000000000 ) ) ;
#1051 = LINE ( 'NONE', #3, #967 ) ;
#1052 = DIRECTION ( 'NONE',  ( 0.000000000000000000, -1.808642493913339749E-16, 1.000000000000000000 ) ) ;
#1053 = ORIENTED_EDGE ( 'NONE', *, *, #880, .T. ) ;
#1054 = PLANE ( 'NONE',  #814 ) ;
#1055 = ORIENTED_EDGE ( 'NONE', *, *, #290, .T. ) ;
#1056 = ORIENTED_EDGE ( 'NONE', *, *, #313, .T. ) ;
#1057 = DIRECTION ( 'NONE',  ( 0.000000000000000000, 1.000000000000000000, 1.853337046983769074E-16 ) ) ;
#1058 = DIRECTION ( 'NONE',  ( -1.000000000000000000, -0.000000000000000000, -0.000000000000000000 ) ) ;
#1059 = ORIENTED_EDGE ( 'NONE', *, *, #674, .F. ) ;
#1060 = EDGE_CURVE ( 'NONE', #1091, #601, #93, .T. ) ;
#1061 = FACE_OUTER_BOUND ( 'NONE', #379, .T. ) ;
#1062 = CIRCLE ( 'NONE', #195, 3.099999999999997424 ) ;
#1063 = EDGE_CURVE ( 'NONE', #256, #311, #470, .T. ) ;
#1064 = AXIS2_PLACEMENT_3D ( 'NONE', #502, #809, #905 ) ;
#1065 = LINE ( 'NONE', #1069, #1173 ) ;
#1066 =( NAMED_UNIT ( * ) PLANE_ANGLE_UNIT ( ) SI_UNIT ( $, .RADIAN. ) );
#1067 = EDGE_LOOP ( 'NONE', ( #597, #991, #1059, #493 ) ) ;
#1068 = CARTESIAN_POINT ( 'NONE',  ( 33.09999999999999432, -3.903127820947815962E-15, 3.099999999999997424 ) ) ;
#1069 = CARTESIAN_POINT ( 'NONE',  ( 100.0000000000000000, 7.500000000000000000, 14.29999999999999716 ) ) ;
#1070 = ORIENTED_EDGE ( 'NONE', *, *, #313, .F. ) ;
#1071 = VECTOR ( 'NONE', #572, 1000.000000000000000 ) ;
#1072 = VERTEX_POINT ( 'NONE', #1041 ) ;
#1073 = VERTEX_POINT ( 'NONE', #645 ) ;
#1074 = CARTESIAN_POINT ( 'NONE',  ( 0.000000000000000000, 6.499999999999999112, 14.29999999999999893 ) ) ;
#1075 = ORIENTED_EDGE ( 'NONE', *, *, #950, .T. ) ;
#1076 = CIRCLE ( 'NONE', #249, 1.799999999999999600 ) ;
#1077 = LINE ( 'NONE', #891, #438 ) ;
#1078 = CARTESIAN_POINT ( 'NONE',  ( 100.0000000000000000, 1.799999999999999822, 12.49999999999999645 ) ) ;
#1079 = FACE_OUTER_BOUND ( 'NONE', #866, .T. ) ;
#1080 = LINE ( 'NONE', #340, #667 ) ;
#1081 = DIRECTION ( 'NONE',  ( -1.000000000000000000, -0.000000000000000000, 1.971276677246370779E-16 ) ) ;
#1082 = AXIS2_PLACEMENT_3D ( 'NONE', #669, #884, #675 ) ;
#1083 = EDGE_CURVE ( 'NONE', #201, #782, #1145, .T. ) ;
#1084 = DIRECTION ( 'NONE',  ( 0.000000000000000000, 1.000000000000000000, 1.853337046983769074E-16 ) ) ;
#1085 = ADVANCED_FACE ( 'NONE', ( #59 ), #633, .T. ) ;
#1086 = ORIENTED_EDGE ( 'NONE', *, *, #567, .F. ) ;
#1087 = VECTOR ( 'NONE', #257, 1000.000000000000000 ) ;
#1088 = LINE ( 'NONE', #536, #31 ) ;
#1089 = VECTOR ( 'NONE', #1295, 1000.000000000000000 ) ;
#1090 = DIRECTION ( 'NONE',  ( 0.000000000000000000, -1.000000000000000000, 4.448008912761040848E-16 ) ) ;
#1091 = VERTEX_POINT ( 'NONE', #1240 ) ;
#1092 = ORIENTED_EDGE ( 'NONE', *, *, #859, .F. ) ;
#1093 = DIRECTION ( 'NONE',  ( -1.000000000000000000, -0.000000000000000000, -0.000000000000000000 ) ) ;
#1094 = DIRECTION ( 'NONE',  ( 0.000000000000000000, -1.000000000000000000, -1.897353801849631971E-15 ) ) ;
#1095 = AXIS2_PLACEMENT_3D ( 'NONE', #1286, #1084, #272 ) ;
#1096 = ORIENTED_EDGE ( 'NONE', *, *, #220, .T. ) ;
#1097 = ORIENTED_EDGE ( 'NONE', *, *, #203, .F. ) ;
#1098 = CARTESIAN_POINT ( 'NONE',  ( 100.0000000000000000, 1.800000000000000044, 13.49999999999999822 ) ) ;
#1099 = ORIENTED_EDGE ( 'NONE', *, *, #421, .F. ) ;
#1100 = ORIENTED_EDGE ( 'NONE', *, *, #674, .T. ) ;
#1101 = AXIS2_PLACEMENT_3D ( 'NONE', #641, #634, #243 ) ;
#1102 = FACE_BOUND ( 'NONE', #19, .T. ) ;
#1103 = PRODUCT_DEFINITION_CONTEXT ( 'detailed design', #118, 'design' ) ;
#1104 = CARTESIAN_POINT ( 'NONE',  ( 0.000000000000000000, 1.799999999999996048, -13.49999999999999645 ) ) ;
#1105 = CARTESIAN_POINT ( 'NONE',  ( 0.000000000000000000, 1.800000000000004263, -11.69999999999999574 ) ) ;
#1106 = CIRCLE ( 'NONE', #918, 3.099999999999997424 ) ;
#1107 = CIRCLE ( 'NONE', #106, 1.799999999999999600 ) ;
#1108 = EDGE_CURVE ( 'NONE', #1043, #1072, #204, .T. ) ;
#1109 = COLOUR_RGB ( '',0.7921568627450980005, 0.8196078431372548767, 0.9333333333333333481 ) ;
#1110 = EDGE_CURVE ( 'NONE', #1272, #855, #146, .T. ) ;
#1111 = CARTESIAN_POINT ( 'NONE',  ( 58.10000000000000142, -3.903127820947815962E-15, 3.099999999999997424 ) ) ;
#1112 = ORIENTED_EDGE ( 'NONE', *, *, #567, .T. ) ;
#1113 = DIRECTION ( 'NONE',  ( 0.000000000000000000, 0.000000000000000000, -1.000000000000000000 ) ) ;
#1114 = CARTESIAN_POINT ( 'NONE',  ( 0.000000000000000000, 5.699999999999996625, -14.30000000000000071 ) ) ;
#1115 = CARTESIAN_POINT ( 'NONE',  ( 8.099999999999997868, 1.000000000000002220, -1.271995986286973412E-15 ) ) ;
#1116 = ORIENTED_EDGE ( 'NONE', *, *, #989, .T. ) ;
#1117 = ORIENTED_EDGE ( 'NONE', *, *, #43, .F. ) ;
#1118 = PLANE ( 'NONE',  #337 ) ;
#1119 = EDGE_LOOP ( 'NONE', ( #98, #732, #1245, #8 ) ) ;
#1120 = DIRECTION ( 'NONE',  ( -0.000000000000000000, -1.000000000000000000, 8.896017825522105362E-16 ) ) ;
#1121 = DIRECTION ( 'NONE',  ( 1.000000000000000000, 0.000000000000000000, 0.000000000000000000 ) ) ;
#1122 = CARTESIAN_POINT ( 'NONE',  ( 41.90000000000000568, -2.602085213965210642E-15, -3.099999999999999201 ) ) ;
#1123 = DIRECTION ( 'NONE',  ( -0.000000000000000000, 1.000000000000000000, 1.853337046983769074E-16 ) ) ;
#1124 = ORIENTED_EDGE ( 'NONE', *, *, #2, .F. ) ;
#1125 = FACE_OUTER_BOUND ( 'NONE', #1192, .T. ) ;
#1126 = VECTOR ( 'NONE', #428, 1000.000000000000000 ) ;
#1127 = AXIS2_PLACEMENT_3D ( 'NONE', #665, #336, #1039 ) ;
#1128 = CARTESIAN_POINT ( 'NONE',  ( 33.09999999999999432, -3.903127820947815962E-15, 3.099999999999997424 ) ) ;
#1129 = DIRECTION ( 'NONE',  ( -0.000000000000000000, 1.000000000000000000, 1.853337046983769074E-16 ) ) ;
#1130 = EDGE_CURVE ( 'NONE', #1206, #794, #875, .T. ) ;
#1131 = EDGE_LOOP ( 'NONE', ( #167, #1162, #1296, #399 ) ) ;
#1132 = ORIENTED_EDGE ( 'NONE', *, *, #360, .T. ) ;
#1133 = EDGE_CURVE ( 'NONE', #802, #944, #64, .T. ) ;
#1134 = CARTESIAN_POINT ( 'NONE',  ( 0.000000000000000000, 1.045852541848039530E-16, 11.69999999999999929 ) ) ;
#1135 = CARTESIAN_POINT ( 'NONE',  ( 100.0000000000000000, 7.499999999999999112, 17.50000000000000000 ) ) ;
#1136 = CARTESIAN_POINT ( 'NONE',  ( 91.90000000000000568, 1.000000000000001554, 3.099999999999996092 ) ) ;
#1137 = ORIENTED_EDGE ( 'NONE', *, *, #485, .T. ) ;
#1138 = DIRECTION ( 'NONE',  ( -0.000000000000000000, 0.000000000000000000, 1.000000000000000000 ) ) ;
#1139 = DIRECTION ( 'NONE',  ( -1.000000000000000000, -0.000000000000000000, -0.000000000000000000 ) ) ;
#1140 = ORIENTED_EDGE ( 'NONE', *, *, #431, .T. ) ;
#1141 = VERTEX_POINT ( 'NONE', #1148 ) ;
#1142 = CARTESIAN_POINT ( 'NONE',  ( 33.09999999999999432, -2.602085213965210642E-15, -3.099999999999997424 ) ) ;
#1143 = CARTESIAN_POINT ( 'NONE',  ( 58.10000000000000142, 1.000000000000002887, -3.099999999999997424 ) ) ;
#1144 = DIRECTION ( 'NONE',  ( -0.000000000000000000, 1.000000000000000000, 1.853337046983769074E-16 ) ) ;
#1145 = LINE ( 'NONE', #430, #127 ) ;
#1146 = VECTOR ( 'NONE', #66, 1000.000000000000000 ) ;
#1147 = LINE ( 'NONE', #494, #639 ) ;
#1148 = CARTESIAN_POINT ( 'NONE',  ( 0.000000000000000000, 1.951563910473907981E-15, -11.70000000000000107 ) ) ;
#1149 = DIRECTION ( 'NONE',  ( 0.000000000000000000, 1.000000000000000000, -4.448008912761039862E-16 ) ) ;
#1150 = DIRECTION ( 'NONE',  ( -0.000000000000000000, 2.710505431213758620E-16, -1.000000000000000000 ) ) ;
#1151 = ORIENTED_EDGE ( 'NONE', *, *, #400, .F. ) ;
#1152 = CARTESIAN_POINT ( 'NONE',  ( 83.10000000000000853, -3.903127820947815962E-15, 3.099999999999997424 ) ) ;
#1153 = CARTESIAN_POINT ( 'NONE',  ( 8.099999999999997868, -3.903127820947815962E-15, 3.099999999999997424 ) ) ;
#1154 = CARTESIAN_POINT ( 'NONE',  ( 0.000000000000000000, 6.499999999999998224, 17.50000000000000000 ) ) ;
#1155 = CARTESIAN_POINT ( 'NONE',  ( 58.10000000000000142, -3.252606517456513302E-15, -1.457329690985351379E-15 ) ) ;
#1156 = AXIS2_PLACEMENT_3D ( 'NONE', #557, #1058, #55 ) ;
#1157 = VERTEX_POINT ( 'NONE', #843 ) ;
#1158 = CARTESIAN_POINT ( 'NONE',  ( 100.0000000000000000, 1.799999999999996048, -13.49999999999999645 ) ) ;
#1159 = EDGE_CURVE ( 'NONE', #1230, #89, #954, .T. ) ;
#1160 = CARTESIAN_POINT ( 'NONE',  ( 100.0000000000000000, 7.500000000000000000, 14.29999999999999716 ) ) ;
#1161 = EDGE_CURVE ( 'NONE', #513, #179, #570, .T. ) ;
#1162 = ORIENTED_EDGE ( 'NONE', *, *, #844, .F. ) ;
#1163 = LINE ( 'NONE', #729, #551 ) ;
#1164 = ORIENTED_EDGE ( 'NONE', *, *, #489, .F. ) ;
#1165 = ORIENTED_EDGE ( 'NONE', *, *, #1216, .T. ) ;
#1166 = ORIENTED_EDGE ( 'NONE', *, *, #691, .F. ) ;
#1167 = EDGE_LOOP ( 'NONE', ( #367, #278, #240, #1227 ) ) ;
#1168 = ORIENTED_EDGE ( 'NONE', *, *, #627, .F. ) ;
#1169 = ORIENTED_EDGE ( 'NONE', *, *, #14, .T. ) ;
#1170 = VECTOR ( 'NONE', #835, 1000.000000000000000 ) ;
#1171 = FACE_OUTER_BOUND ( 'NONE', #273, .T. ) ;
#1172 = AXIS2_PLACEMENT_3D ( 'NONE', #1258, #962, #853 ) ;
#1173 = VECTOR ( 'NONE', #232, 1000.000000000000000 ) ;
#1174 = CARTESIAN_POINT ( 'NONE',  ( 83.10000000000000853, -2.602085213965210642E-15, -3.099999999999997424 ) ) ;
#1175 = VECTOR ( 'NONE', #727, 1000.000000000000000 ) ;
#1176 = EDGE_LOOP ( 'NONE', ( #539, #1019, #71, #635 ) ) ;
#1177 = EDGE_CURVE ( 'NONE', #548, #855, #1080, .T. ) ;
#1178 = DIRECTION ( 'NONE',  ( 0.000000000000000000, 1.000000000000000000, 1.853337046983769074E-16 ) ) ;
#1179 = EDGE_CURVE ( 'NONE', #824, #287, #1215, .T. ) ;
#1180 = EDGE_LOOP ( 'NONE', ( #946, #326, #986, #1222 ) ) ;
#1181 = ORIENTED_EDGE ( 'NONE', *, *, #584, .F. ) ;
#1182 = VECTOR ( 'NONE', #1016, 1000.000000000000000 ) ;
#1183 = VECTOR ( 'NONE', #479, 1000.000000000000000 ) ;
#1184 = LINE ( 'NONE', #699, #772 ) ;
#1185 = ORIENTED_EDGE ( 'NONE', *, *, #271, .T. ) ;
#1186 = AXIS2_PLACEMENT_3D ( 'NONE', #1017, #316, #625 ) ;
#1187 = EDGE_CURVE ( 'NONE', #513, #1073, #391, .T. ) ;
#1188 = DIRECTION ( 'NONE',  ( -1.000000000000000000, -0.000000000000000000, -0.000000000000000000 ) ) ;
#1189 = ADVANCED_FACE ( 'NONE', ( #115 ), #936, .F. ) ;
#1190 = EDGE_CURVE ( 'NONE', #361, #105, #984, .T. ) ;
#1191 = AXIS2_PLACEMENT_3D ( 'NONE', #960, #956, #452 ) ;
#1192 = EDGE_LOOP ( 'NONE', ( #1042, #349, #476, #28 ) ) ;
#1193 = ORIENTED_EDGE ( 'NONE', *, *, #655, .F. ) ;
#1194 = ORIENTED_EDGE ( 'NONE', *, *, #1063, .F. ) ;
#1195 = FACE_OUTER_BOUND ( 'NONE', #626, .T. ) ;
#1196 = ADVANCED_FACE ( 'NONE', ( #132 ), #845, .F. ) ;
#1197 = LINE ( 'NONE', #472, #1266 ) ;
#1198 = VECTOR ( 'NONE', #711, 1000.000000000000000 ) ;
#1199 = CARTESIAN_POINT ( 'NONE',  ( 58.10000000000000142, -2.602085213965210642E-15, -3.099999999999997424 ) ) ;
#1200 = DIRECTION ( 'NONE',  ( 1.000000000000000000, 0.000000000000000000, 0.000000000000000000 ) ) ;
#1201 = CARTESIAN_POINT ( 'NONE',  ( 100.0000000000000000, 6.499999999999999112, 14.29999999999999893 ) ) ;
#1202 = DIRECTION ( 'NONE',  ( 0.000000000000000000, 0.000000000000000000, -1.000000000000000000 ) ) ;
#1203 = CARTESIAN_POINT ( 'NONE',  ( 58.10000000000000142, -2.602085213965210642E-15, -3.099999999999997424 ) ) ;
#1204 = CARTESIAN_POINT ( 'NONE',  ( 16.89999999999999858, 1.660017798950276505E-15, 3.099999999999996092 ) ) ;
#1205 = VERTEX_POINT ( 'NONE', #1020 ) ;
#1206 = VERTEX_POINT ( 'NONE', #795 ) ;
#1207 = PRESENTATION_LAYER_ASSIGNMENT (  '', '', ( #797 ) ) ;
#1208 = CARTESIAN_POINT ( 'NONE',  ( 8.099999999999997868, -3.252606517456513302E-15, -1.457329690985351379E-15 ) ) ;
#1209 = CARTESIAN_POINT ( 'NONE',  ( 100.0000000000000000, 6.499999999999999112, 14.29999999999999893 ) ) ;
#1210 = DIRECTION ( 'NONE',  ( -0.000000000000000000, 1.000000000000000000, 1.853337046983769074E-16 ) ) ;
#1211 = FACE_OUTER_BOUND ( 'NONE', #1221, .T. ) ;
#1212 = LINE ( 'NONE', #1010, #1089 ) ;
#1213 = CARTESIAN_POINT ( 'NONE',  ( 100.0000000000000000, 0.9999999999999988898, 11.69999999999999574 ) ) ;
#1214 = EDGE_CURVE ( 'NONE', #311, #957, #371, .T. ) ;
#1215 = LINE ( 'NONE', #150, #861 ) ;
#1216 = EDGE_CURVE ( 'NONE', #467, #1043, #712, .T. ) ;
#1217 = PRODUCT_CONTEXT ( 'NONE', #492, 'mechanical' ) ;
#1218 = DIRECTION ( 'NONE',  ( 0.000000000000000000, 5.421010862427517240E-16, 1.000000000000000000 ) ) ;
#1219 = CARTESIAN_POINT ( 'NONE',  ( 8.099999999999996092, 1.000000000000001554, 3.099999999999997868 ) ) ;
#1220 = AXIS2_PLACEMENT_3D ( 'NONE', #593, #1302, #1113 ) ;
#1221 = EDGE_LOOP ( 'NONE', ( #407, #885, #196, #363 ) ) ;
#1222 = ORIENTED_EDGE ( 'NONE', *, *, #1249, .T. ) ;
#1223 = CARTESIAN_POINT ( 'NONE',  ( 58.10000000000000142, -3.252606517456513302E-15, -1.457329690985351379E-15 ) ) ;
#1224 = ORIENTED_EDGE ( 'NONE', *, *, #360, .F. ) ;
#1225 = DIRECTION ( 'NONE',  ( -1.000000000000000000, -0.000000000000000000, 1.971276677246370779E-16 ) ) ;
#1226 = CARTESIAN_POINT ( 'NONE',  ( 0.000000000000000000, 5.700000000000000178, 14.29999999999999716 ) ) ;
#1227 = ORIENTED_EDGE ( 'NONE', *, *, #1161, .T. ) ;
#1228 = ORIENTED_EDGE ( 'NONE', *, *, #1018, .T. ) ;
#1229 = CARTESIAN_POINT ( 'NONE',  ( 83.10000000000000853, -3.903127820947815962E-15, 3.099999999999997424 ) ) ;
#1230 = VERTEX_POINT ( 'NONE', #801 ) ;
#1231 = DIRECTION ( 'NONE',  ( -0.000000000000000000, -1.000000000000000000, -0.000000000000000000 ) ) ;
#1232 = FACE_OUTER_BOUND ( 'NONE', #949, .T. ) ;
#1233 = VECTOR ( 'NONE', #970, 1000.000000000000000 ) ;
#1234 = DIRECTION ( 'NONE',  ( 1.971276677246370040E-16, -1.853337046983769074E-16, 1.000000000000000000 ) ) ;
#1235 = CARTESIAN_POINT ( 'NONE',  ( 41.90000000000000568, 1.660017798950276505E-15, 3.099999999999994316 ) ) ;
#1236 = CYLINDRICAL_SURFACE ( 'NONE', #1015, 1.799999999999999600 ) ;
#1237 = CARTESIAN_POINT ( 'NONE',  ( 100.0000000000000000, 1.800000000000000044, 11.69999999999999929 ) ) ;
#1238 = LINE ( 'NONE', #209, #682 ) ;
#1239 = EDGE_LOOP ( 'NONE', ( #24, #141, #233, #719 ) ) ;
#1240 = CARTESIAN_POINT ( 'NONE',  ( 100.0000000000000000, 1.951563910473907981E-15, -11.70000000000000107 ) ) ;
#1241 = VERTEX_POINT ( 'NONE', #397 ) ;
#1242 = CARTESIAN_POINT ( 'NONE',  ( 0.000000000000000000, 7.500000000000003553, -17.50000000000000000 ) ) ;
#1243 = DIRECTION ( 'NONE',  ( -0.000000000000000000, 1.000000000000000000, 1.853337046983769074E-16 ) ) ;
#1244 = CARTESIAN_POINT ( 'NONE',  ( 8.099999999999997868, -3.903127820947815962E-15, 3.099999999999997424 ) ) ;
#1245 = ORIENTED_EDGE ( 'NONE', *, *, #906, .F. ) ;
#1246 = AXIS2_PLACEMENT_3D ( 'NONE', #480, #381, #384 ) ;
#1247 = ORIENTED_EDGE ( 'NONE', *, *, #474, .F. ) ;
#1248 = DIRECTION ( 'NONE',  ( 1.000000000000000000, 0.000000000000000000, 0.000000000000000000 ) ) ;
#1249 = EDGE_CURVE ( 'NONE', #957, #1241, #1184, .T. ) ;
#1250 = VECTOR ( 'NONE', #521, 1000.000000000000000 ) ;
#1251 = VECTOR ( 'NONE', #506, 1000.000000000000000 ) ;
#1252 = VECTOR ( 'NONE', #29, 1000.000000000000000 ) ;
#1253 = DIRECTION ( 'NONE',  ( -0.000000000000000000, 1.000000000000000000, 1.808642493913339749E-16 ) ) ;
#1254 = VECTOR ( 'NONE', #528, 1000.000000000000000 ) ;
#1255 = CARTESIAN_POINT ( 'NONE',  ( 33.09999999999999432, -3.903127820947815962E-15, 3.099999999999997424 ) ) ;
#1256 = DIRECTION ( 'NONE',  ( 0.000000000000000000, 0.000000000000000000, -1.000000000000000000 ) ) ;
#1257 = ORIENTED_EDGE ( 'NONE', *, *, #231, .T. ) ;
#1258 = CARTESIAN_POINT ( 'NONE',  ( 91.90000000000000568, -3.252606517456513302E-15, -1.457329690985351379E-15 ) ) ;
#1259 = AXIS2_PLACEMENT_3D ( 'NONE', #188, #1094, #589 ) ;
#1260 = ORIENTED_EDGE ( 'NONE', *, *, #1159, .F. ) ;
#1261 = CARTESIAN_POINT ( 'NONE',  ( 58.10000000000000142, -3.903127820947815962E-15, 3.099999999999997424 ) ) ;
#1262 = EDGE_CURVE ( 'NONE', #361, #591, #305, .T. ) ;
#1263 = EDGE_LOOP ( 'NONE', ( #1300, #96, #628, #372 ) ) ;
#1264 = EDGE_CURVE ( 'NONE', #1008, #899, #413, .T. ) ;
#1265 = LINE ( 'NONE', #1261, #241 ) ;
#1266 = VECTOR ( 'NONE', #774, 1000.000000000000000 ) ;
#1267 = FACE_OUTER_BOUND ( 'NONE', #981, .T. ) ;
#1268 = ORIENTED_EDGE ( 'NONE', *, *, #1214, .F. ) ;
#1269 = CARTESIAN_POINT ( 'NONE',  ( 58.10000000000000142, 1.000000000000002887, -3.099999999999997424 ) ) ;
#1270 = ORIENTED_EDGE ( 'NONE', *, *, #677, .T. ) ;
#1271 = CIRCLE ( 'NONE', #1246, 0.8000000000000003775 ) ;
#1272 = VERTEX_POINT ( 'NONE', #497 ) ;
#1273 = ORIENTED_EDGE ( 'NONE', *, *, #298, .F. ) ;
#1274 = ORIENTED_EDGE ( 'NONE', *, *, #1216, .F. ) ;
#1275 = VERTEX_POINT ( 'NONE', #503 ) ;
#1276 = CARTESIAN_POINT ( 'NONE',  ( 0.000000000000000000, 7.499999999999999112, 17.50000000000000000 ) ) ;
#1277 = LINE ( 'NONE', #1035, #566 ) ;
#1278 = VERTEX_POINT ( 'NONE', #1201 ) ;
#1279 = LINE ( 'NONE', #459, #1087 ) ;
#1280 = FACE_BOUND ( 'NONE', #1176, .T. ) ;
#1281 = AXIS2_PLACEMENT_3D ( 'NONE', #144, #445, #654 ) ;
#1282 = EDGE_CURVE ( 'NONE', #1045, #921, #1238, .T. ) ;
#1283 = CARTESIAN_POINT ( 'NONE',  ( 91.90000000000000568, 1.000000000000002220, -1.271995986286973412E-15 ) ) ;
#1284 = ORIENTED_EDGE ( 'NONE', *, *, #703, .T. ) ;
#1285 = EDGE_CURVE ( 'NONE', #680, #816, #917, .T. ) ;
#1286 = CARTESIAN_POINT ( 'NONE',  ( 41.90000000000000568, -3.252606517456513302E-15, -1.457329690985351379E-15 ) ) ;
#1287 = ORIENTED_EDGE ( 'NONE', *, *, #140, .T. ) ;
#1288 = CARTESIAN_POINT ( 'NONE',  ( 0.000000000000000000, 1.000000000000000000, 11.69999999999999574 ) ) ;
#1289 = VECTOR ( 'NONE', #17, 1000.000000000000000 ) ;
#1290 = VECTOR ( 'NONE', #996, 1000.000000000000000 ) ;
#1291 = PLANE ( 'NONE',  #1259 ) ;
#1292 = LINE ( 'NONE', #1276, #334 ) ;
#1293 = LINE ( 'NONE', #238, #1014 ) ;
#1294 = DIRECTION ( 'NONE',  ( -0.000000000000000000, 2.710505431213758620E-16, -1.000000000000000000 ) ) ;
#1295 = DIRECTION ( 'NONE',  ( 0.000000000000000000, -5.421010862427517240E-16, -1.000000000000000000 ) ) ;
#1296 = ORIENTED_EDGE ( 'NONE', *, *, #377, .F. ) ;
#1297 = ORIENTED_EDGE ( 'NONE', *, *, #677, .F. ) ;
#1298 = EDGE_LOOP ( 'NONE', ( #890, #235, #1137, #1284 ) ) ;
#1299 = VERTEX_POINT ( 'NONE', #1104 ) ;
#1300 = ORIENTED_EDGE ( 'NONE', *, *, #344, .T. ) ;
#1301 = CLOSED_SHELL ( 'NONE', ( #784, #1189, #264, #978, #451, #671, #888, #881, #862, #87, #172, #58, #776, #165, #457, #972, #676, #284, #877, #571, #697, #903, #988, #995, #1085, #73, #563, #793, #985, #68, #1196, #574, #683, #276, #872, #773, #469, #765 ) ) ;
#1302 = DIRECTION ( 'NONE',  ( 1.000000000000000000, 0.000000000000000000, 0.000000000000000000 ) ) ;
#1303 = DIRECTION ( 'NONE',  ( -1.000000000000000000, -0.000000000000000000, 0.000000000000000000 ) ) ;
#1304 = PLANE ( 'NONE',  #542 ) ;
#1305 = VERTEX_POINT ( 'NONE', #792 ) ;
#1306 = AXIS2_PLACEMENT_3D ( 'NONE', #904, #288, #694 ) ;
ENDSEC;
END-ISO-10303-21;
